<?xml version="1.0" encoding="UTF-8"?>
<!DOCTYPE svg PUBLIC "-//W3C//DTD SVG 1.1//EN" "http://www.w3.org/Graphics/SVG/1.1/DTD/svg11.dtd">
<!-- Creator: CorelDRAW X7 -->
<svg xmlns="http://www.w3.org/2000/svg" xml:space="preserve" width="177.8mm" height="177.8mm" version="1.1" style="shape-rendering:geometricPrecision; text-rendering:geometricPrecision; image-rendering:optimizeQuality; fill-rule:evenodd; clip-rule:evenodd"
viewBox="0 0 17780 17780"
 xmlns:xlink="http://www.w3.org/1999/xlink">
 <defs>
  <style type="text/css">
   <![CDATA[
    .str1 {stroke:#000066;stroke-width:282.22}
    .str0 {stroke:white;stroke-width:20}
    .str2 {stroke:white;stroke-width:7.62}
    .fil2 {fill:none}
    .fil4 {fill:none;fill-rule:nonzero}
    .fil1 {fill:#000066}
    .fil0 {fill:#000066}
    .fil3 {fill:#000066;fill-rule:nonzero}
   ]]>
  </style>
 </defs>
 <g id="Layer_x0020_1">
  <metadata id="CorelCorpID_0Corel-Layer"/>
  <g id="_2975895021104">
   <path class="fil0" d="M10173 9203c-127,0 -670,-15 -751,9 -47,15 -77,70 -36,116 30,33 102,31 123,73 17,31 13,1483 4,1506 -18,46 -79,40 -118,69 -46,35 -32,103 21,122 58,21 634,9 745,9 53,0 126,8 165,-20 42,-29 39,-97 -12,-121 -43,-20 -106,-14 -128,-59 -19,-38 -12,-133 -12,-180 0,-253 0,-505 0,-758 0,-249 10,-520 -1,-766z"/>
   <path class="fil0" d="M8770 8892l0 -1900 -712 1c-74,6 -129,60 -77,122 45,54 121,13 132,101l1 1435c-5,111 -74,70 -127,116 -22,19 -29,51 -19,80 26,72 222,47 322,47 150,0 335,10 480,-2z"/>
   <path class="fil0" d="M8890 7141c207,54 199,117 199,342 0,84 10,179 -20,254 -30,75 -89,86 -177,99l-2 144c214,62 199,100 199,386 0,81 10,203 -16,274 -31,84 -88,91 -183,111l0 139c125,22 428,-4 540,-43 350,-124 413,-494 227,-744 -37,-50 -98,-88 -172,-122 -79,-36 -123,-37 -192,-56l-37 -14c28,-16 74,-23 106,-33 94,-28 214,-80 269,-150 85,-109 139,-276 68,-441 -108,-251 -462,-322 -806,-296l-3 150z"/>
   <path class="fil0" d="M7561 6753c-1,-245 10,-136 -84,-194 -23,-14 -47,-42 -59,-65 -44,-88 -25,-605 -25,-721 0,-167 0,-333 0,-499 0,-176 4,-296 168,-329l-1 -169c-289,15 -441,110 -628,298 -382,382 -404,1680 629,1679z"/>
   <path class="fil0" d="M10295 9354c98,15 145,46 161,143 9,58 8,530 -2,588 -16,91 -70,124 -159,142l0 154c404,10 804,-116 807,-590 1,-229 -108,-384 -232,-468 -144,-98 -372,-122 -574,-120l-1 151z"/>
   <path class="fil0" d="M8477 12642c6,-300 -157,-473 -325,-583 -151,-98 -477,-209 -690,-230 41,187 244,478 342,587 62,70 161,142 275,188 88,35 309,88 398,38z"/>
   <path class="fil0" d="M5715 7716c114,13 279,-37 363,-84 102,-55 179,-127 241,-213 108,-153 216,-452 237,-680 -188,51 -452,201 -592,325 -72,64 -148,143 -201,253 -46,96 -86,281 -48,399z"/>
   <path class="fil0" d="M5341 8208c70,-43 160,-155 207,-241 55,-101 77,-239 65,-373 -16,-160 -96,-360 -170,-497 -24,-45 -49,-118 -84,-140 -28,14 -10,2 -44,64 -151,277 -317,612 -172,937 36,80 130,227 198,250z"/>
   <path class="fil0" d="M5225 9603c190,-5 417,-170 523,-349 117,-197 133,-484 145,-741 -139,36 -441,290 -526,395 -66,83 -134,168 -167,297 -28,107 -37,312 25,398z"/>
   <path class="fil0" d="M6401 12847c44,22 277,87 336,101 247,60 531,65 749,-68 82,-49 187,-142 229,-220 -8,-6 -5,-4 -17,-13 -81,-59 -193,-121 -289,-148 -130,-38 -283,-25 -411,9 -167,45 -419,201 -567,306 -31,22 -18,3 -30,33z"/>
   <path class="fil0" d="M5613 11351c-18,-100 -89,-250 -138,-312 -227,-283 -655,-322 -1020,-322 38,129 337,436 427,504 83,62 185,121 313,151 174,42 262,8 418,-21z"/>
   <path class="fil0" d="M5766 11418c152,-23 354,-277 388,-502 20,-132 3,-272 -24,-398 -16,-73 -77,-287 -105,-340 -27,8 -169,209 -195,245 -174,245 -292,548 -149,846 26,53 72,104 85,149z"/>
   <path class="fil0" d="M5365 10697c16,-277 -188,-473 -347,-565 -218,-127 -442,-153 -716,-196 25,127 259,463 365,555 184,161 361,246 698,206z"/>
   <path class="fil0" d="M12017 11409c15,-47 55,-94 82,-143 247,-458 -286,-1065 -343,-1090 -26,44 -89,269 -103,332 -58,266 -57,489 106,705 37,49 166,181 258,196z"/>
   <path class="fil0" d="M7283 12400c53,-66 104,-240 109,-345 14,-258 -114,-409 -246,-567 -79,-95 -115,-115 -170,-177 -31,-35 -82,-80 -128,-100 -70,323 -87,788 173,1026 47,43 173,149 262,163z"/>
   <path class="fil0" d="M10874 12375c9,13 -1,3 12,15 56,50 208,124 286,142 133,29 291,22 415,-14 184,-52 506,-205 602,-312 -34,-26 -266,-98 -328,-114 -253,-63 -528,-80 -757,59 -77,47 -190,151 -230,224z"/>
   <path class="fil0" d="M9307 12641c244,40 433,-43 612,-179 127,-96 373,-482 402,-641 -177,5 -575,147 -693,226 -191,129 -342,354 -321,594z"/>
   <path class="fil0" d="M12170 11337c253,111 556,12 720,-117 124,-97 399,-379 437,-512 -519,22 -1028,61 -1157,629z"/>
   <path class="fil0" d="M12424 6943c-24,23 -131,242 -153,290 -46,99 -86,223 -100,346 -22,201 38,361 148,509 14,18 94,101 117,106 63,14 303,-275 250,-625 -20,-128 -59,-231 -106,-339 -22,-49 -130,-270 -156,-287z"/>
   <path class="fil0" d="M7300 13207c170,72 568,109 772,74 208,-36 486,-201 521,-364 -450,-298 -864,-91 -1225,229 -50,44 -47,19 -68,61z"/>
   <path class="fil0" d="M12417 10689c163,5 254,28 406,-27 105,-38 235,-116 287,-175l107 -117c76,-92 238,-328 263,-436 -235,2 -546,98 -722,191 -157,83 -346,301 -341,564z"/>
   <path class="fil0" d="M12567 9593c41,-108 45,-282 15,-397 -55,-220 -234,-383 -403,-514 -50,-38 -218,-159 -289,-177 27,291 13,500 144,741 54,101 117,168 210,226 68,43 226,127 323,121z"/>
   <path class="fil0" d="M5443 8530c145,0 283,-5 405,-58 201,-88 346,-291 430,-489 27,-64 118,-276 112,-344 -113,40 -222,67 -334,114 -220,91 -397,194 -520,398 -61,102 -92,237 -93,379z"/>
   <path class="fil0" d="M10500 12391c89,-15 217,-120 262,-163 255,-241 245,-702 173,-1026 -115,48 -368,342 -443,470 -97,165 -139,372 -67,563 11,30 60,137 75,156z"/>
   <path class="fil0" d="M5119 10024c23,-153 62,-238 19,-404 -56,-217 -243,-386 -419,-508 -48,-33 -241,-156 -294,-168 0,267 49,523 164,718 110,188 307,341 530,362z"/>
   <path class="fil0" d="M12071 7718c6,-171 24,-245 -45,-398 -89,-197 -289,-348 -473,-444 -87,-46 -224,-120 -325,-140 21,197 116,513 237,673 148,198 281,269 606,309z"/>
   <path class="fil0" d="M12330 8522c34,-70 -40,-300 -77,-368 -114,-208 -309,-317 -519,-408 -110,-48 -234,-73 -340,-116 -9,67 82,274 109,339 83,198 232,407 434,491 110,46 262,88 393,62z"/>
   <path class="fil0" d="M12709 9137c185,-64 370,-341 370,-593 0,-203 -38,-450 -117,-638 -1,-2 -2,-5 -3,-7 -38,23 -171,196 -208,250 -170,248 -312,544 -134,852 19,34 70,117 92,136z"/>
   <path class="fil0" d="M5448 10532c163,-34 372,-239 429,-436 83,-287 7,-500 -28,-771 -101,46 -346,354 -418,494 -120,233 -134,497 17,713z"/>
   <path class="fil0" d="M5074 9146c49,-52 132,-206 156,-294 68,-255 -65,-497 -195,-689 -36,-53 -175,-234 -211,-256 -25,34 -91,299 -98,333 -49,235 -36,520 113,708 55,70 141,155 235,198z"/>
   <path class="fil0" d="M12335 10523c145,-210 138,-476 20,-707 -55,-109 -120,-188 -185,-269 -17,-21 -35,-35 -53,-55 -45,-51 -118,-139 -174,-172l-14 40c-3,13 -5,29 -8,44 -63,323 -119,693 147,948 54,52 168,154 267,171z"/>
   <path class="fil0" d="M6410 11973c71,-32 163,-153 207,-238 187,-365 -24,-695 -173,-979l-25 -42c-89,81 -235,466 -252,632 -40,411 180,528 243,627z"/>
   <path class="fil0" d="M12628 9729c0,174 5,130 37,285 103,-5 250,-75 315,-122 288,-209 378,-591 377,-956 -116,39 -365,215 -457,298 -102,93 -272,268 -272,495z"/>
   <path class="fil0" d="M11365 11963c53,-46 62,-50 105,-105 248,-315 151,-684 -21,-1011 -28,-52 -48,-114 -85,-142 -5,5 -6,6 -13,17 -4,6 -6,10 -10,17l-59 111c-140,265 -272,560 -122,865 35,71 139,214 205,248z"/>
   <path class="fil0" d="M11592 11922c86,16 146,87 369,88 142,1 263,-37 372,-91 92,-45 211,-125 274,-181 46,-40 214,-185 238,-227 -8,-6 -3,-4 -20,-10l-161 -26c-328,-43 -645,-44 -894,175 -43,38 -162,184 -178,272z"/>
   <path class="fil0" d="M5593 12215c33,43 208,142 275,177 222,116 475,207 735,149 100,-22 259,-101 305,-157 -30,-67 -154,-178 -224,-220 -241,-148 -484,-130 -752,-62 -69,18 -299,78 -339,113z"/>
   <path class="fil0" d="M9190 12907c20,90 142,190 202,237 77,61 187,108 307,129 263,47 487,-13 737,-61 33,-6 24,0 50,-17 -2,-2 -5,-6 -6,-5l-123 -102c-118,-98 -281,-208 -429,-266 -261,-104 -551,-54 -738,85z"/>
   <path class="fil0" d="M4939 11520c36,60 173,170 234,221 177,147 386,279 640,278 207,0 284,-70 379,-87 -36,-174 -258,-372 -460,-429 -193,-56 -405,-46 -607,-20 -36,4 -157,13 -186,37z"/>
   <path class="fil0" d="M10067 12651c32,72 148,170 225,216 228,139 482,132 739,76 126,-28 238,-75 353,-100 -13,-23 0,-4 -14,-19l-261 -176c-216,-123 -476,-220 -734,-157 -58,14 -118,39 -166,66 -37,21 -113,68 -142,94z"/>
   <path class="fil0" d="M7681 4780l0 164c53,21 78,20 126,46 47,27 65,45 100,79 59,60 98,117 139,209 23,51 76,227 97,250 35,37 99,29 124,-10 34,-52 19,-428 19,-503 0,-96 29,-258 -98,-235 -110,20 -12,149 -221,78 -96,-33 -176,-63 -286,-78z"/>
   <path class="fil0" d="M7681 6582l0 172c172,-5 305,-70 399,-157 59,-55 211,-208 209,-343 -1,-90 -108,-119 -149,-53 -25,41 -29,105 -91,186 -75,97 -192,184 -368,195z"/>
   <path class="fil0" d="M8821 12651c-56,21 -73,28 -96,79 -69,150 78,299 240,232 213,-88 86,-398 -144,-311z"/>
  </g>
  <circle class="fil1 str0" cx="3697" cy="12247" r="305"/>
  <circle class="fil1 str0" cx="13943" cy="12247" r="305"/>
  <circle class="fil2 str1" cx="8890" cy="8890" r="7103"/>
  <path class="fil3" d="M2443 10359l-24 -83 287 -170 65 99c-63,58 -105,107 -127,148 -30,57 -37,111 -22,163 11,37 33,69 65,96 32,26 72,42 121,49 49,7 102,2 160,-15 89,-26 159,-71 210,-134 51,-62 66,-130 45,-201 -14,-46 -40,-85 -80,-119 -50,-43 -109,-75 -178,-96l45 -111c103,34 177,70 225,109 74,60 124,136 151,228 22,76 23,151 2,225 -21,73 -61,139 -120,196 -60,57 -131,98 -213,123 -83,24 -163,28 -242,11 -78,-16 -145,-49 -201,-100 -56,-51 -96,-115 -118,-191 -22,-77 -25,-150 -8,-218l-43 -9zm-144 -898c-10,-135 25,-246 105,-336 81,-90 189,-140 324,-150 92,-7 174,6 248,39 73,32 132,80 175,145 44,64 69,143 76,237 10,125 -19,230 -86,315 -80,103 -194,160 -341,171 -137,11 -252,-23 -345,-101 -93,-77 -145,-184 -156,-320zm143 -14c5,65 34,114 88,148 68,43 153,60 254,53 102,-8 180,-36 236,-85 48,-43 69,-95 64,-158 -4,-64 -33,-112 -87,-147 -64,-40 -146,-56 -247,-49 -72,6 -131,20 -178,43 -47,23 -81,51 -102,86 -22,35 -31,71 -28,109zm-163 -667l26 -342 543 -208 -321 -25c-28,-2 -45,-2 -52,1 -10,3 -18,8 -23,14 -4,7 -7,20 -9,40l-3 41 -124 -9 27 -349 124 9 -3 39c-2,19 0,33 4,42 4,8 10,14 18,18 7,4 25,7 52,9l695 53 -13 175 -686 262 463 36c27,2 44,1 52,-1 7,-3 13,-8 18,-15 5,-8 8,-21 10,-40l3 -41 124 10 -27 349 -124 -10 3 -36c2,-20 1,-34 -2,-42 -3,-7 -9,-14 -18,-19 -8,-5 -22,-8 -40,-9l-516 -40c-19,-1 -34,0 -43,3 -10,4 -17,8 -22,15 -4,6 -7,18 -8,34l-4 45 -124 -9zm248 -1685l19 -84 334 -10 9 118c-83,20 -144,42 -183,68 -53,35 -86,79 -98,132 -8,38 -5,76 10,115 15,38 42,72 82,102 39,29 88,51 148,64 89,20 172,16 247,-15 75,-30 121,-81 137,-154 11,-46 7,-94 -12,-143 -22,-61 -58,-118 -108,-170l93 -75c73,79 121,147 144,204 35,88 42,179 21,273 -18,77 -54,143 -108,198 -53,54 -120,91 -200,113 -80,21 -162,22 -246,3 -84,-19 -156,-54 -217,-106 -60,-52 -103,-114 -127,-186 -24,-72 -28,-147 -10,-224 18,-79 51,-143 99,-195l-34 -28zm126 -442l296 -642 301 32 -8 117c-51,-2 -94,2 -131,12 -36,11 -65,28 -86,51 -21,24 -40,54 -57,90l-54 118 205 95 18 -39c13,-28 20,-49 20,-61 0,-12 -4,-22 -11,-31 -8,-9 -26,-20 -55,-33l-31 -14 46 -100 346 160 -46 99 -35 -16c-24,-11 -43,-17 -57,-16 -13,0 -24,3 -32,11 -8,7 -19,26 -34,58l-16 34 188 87c20,9 33,13 38,14 5,0 10,-2 15,-7 5,-4 11,-15 19,-32l30 -65c22,-48 34,-92 34,-132 1,-40 -9,-81 -30,-122 -21,-41 -51,-79 -89,-113l83 -84 258 241 -307 666 -113 -52 9 -20c11,-26 17,-44 18,-54 0,-11 -4,-20 -12,-29 -5,-4 -21,-13 -49,-25l-446 -206c-24,-11 -41,-17 -50,-17 -8,-1 -16,1 -23,7 -7,4 -15,17 -24,36l-15 34 -113 -52zm429 -920l238 -380c30,-48 60,-85 91,-110 30,-25 63,-43 98,-52 36,-10 72,-12 109,-6 36,6 71,19 103,39 66,41 106,99 120,174 15,75 -4,154 -56,237l-77 123 143 90c17,11 30,17 36,17 9,2 17,0 24,-4 7,-4 16,-14 25,-29l23 -37 105 66 -219 351 -106 -67 16 -24c13,-21 20,-37 21,-45 1,-9 -1,-18 -6,-25 -5,-8 -19,-19 -41,-33l-420 -263c-23,-15 -40,-23 -49,-25 -9,-2 -17,-1 -24,3 -8,4 -17,14 -27,31l-22 35 -105 -66zm289 -186l218 137 38 -62c24,-37 37,-68 40,-90 3,-23 -1,-45 -11,-66 -11,-22 -28,-40 -51,-55 -35,-22 -71,-26 -108,-14 -27,10 -52,33 -75,70l-51 80zm241 -683l52 -61 29 14 312 -364 -16 -27 52 -61 308 128 -41 112c-56,-15 -94,-24 -113,-26 -38,-4 -73,-1 -105,8 -24,7 -43,18 -56,34 -7,7 -9,14 -8,20 2,6 9,15 22,26l392 338c24,20 39,31 46,35 7,3 14,5 21,4 6,-1 13,-4 20,-9 6,-6 22,-23 46,-51l94 81 -270 314 -94 -81 17 -20c18,-20 28,-35 30,-43 2,-9 1,-17 -3,-27 -4,-9 -18,-23 -40,-42l-400 -345c-12,-10 -20,-14 -25,-15 -5,0 -11,4 -18,12 -14,16 -23,40 -27,70 -5,31 -2,64 8,99 4,14 18,49 43,106l-104 56 -172 -285zm1121 -1106l255 178 -62 100c-76,-28 -143,-39 -201,-33 -58,7 -107,28 -147,64 -26,23 -42,47 -47,71 -5,25 -1,44 11,58 14,16 34,25 59,26 26,2 61,-8 107,-29l155 -70c86,-39 158,-54 217,-46 59,9 109,37 149,83 52,58 73,126 65,205 -9,88 -50,164 -123,228 -34,30 -68,53 -105,69 -36,16 -79,26 -129,32l23 66 -68 60 -276 -222 66 -97c67,36 138,53 211,51 75,-2 137,-25 187,-70 23,-20 39,-40 49,-59 9,-19 13,-38 11,-56 -2,-17 -8,-32 -19,-44 -17,-19 -40,-28 -70,-26 -30,1 -74,15 -130,41l-135 61c-21,9 -50,20 -90,30 -39,11 -72,16 -100,15 -27,-2 -56,-10 -86,-24 -30,-14 -56,-34 -78,-59 -32,-35 -51,-77 -59,-123 -8,-47 -2,-96 19,-148 21,-52 54,-98 100,-138 55,-48 118,-77 188,-87l-12 -49 65 -58zm711 -357l-61 -109 420 -235c65,-36 120,-56 166,-61 45,-4 86,3 123,22 36,18 65,46 85,81 14,26 23,54 25,83 3,29 -1,58 -11,87 -9,29 -27,58 -53,88 40,-10 72,-15 97,-14 35,1 69,12 100,31 32,20 57,47 77,82 23,42 33,87 29,135 -4,49 -23,94 -56,137 -33,42 -91,87 -174,134l-388 217 -61 -109 29 -16c20,-11 32,-20 37,-28 5,-7 7,-15 6,-23 -1,-8 -7,-24 -20,-47l-246 -439c-13,-23 -23,-37 -29,-42 -6,-5 -14,-7 -23,-7 -9,0 -23,6 -43,17l-29 16zm388 59l81 -46c42,-23 72,-45 88,-64 16,-19 25,-39 27,-60 1,-21 -3,-41 -15,-61 -11,-21 -26,-36 -44,-46 -18,-9 -38,-12 -60,-7 -22,4 -56,19 -104,45l-81 46 108 193zm64 114l95 171c14,24 23,37 27,41 4,4 9,6 15,6 5,0 16,-5 34,-15l54 -31c32,-17 56,-35 73,-53 17,-17 28,-40 31,-68 4,-28 -2,-55 -17,-83 -14,-23 -30,-40 -49,-51 -19,-10 -42,-14 -67,-11 -25,4 -58,17 -101,40l-95 54zm869 -951c128,-40 245,-31 351,27 105,58 178,152 219,282 27,87 33,170 18,249 -15,79 -49,147 -102,204 -52,57 -124,99 -215,127 -119,38 -228,33 -326,-12 -118,-56 -199,-154 -243,-294 -41,-131 -34,-251 20,-359 55,-109 148,-183 278,-224zm45 136c-62,19 -103,59 -124,119 -27,76 -25,162 6,259 30,98 76,168 136,211 52,37 108,46 168,27 61,-19 102,-58 123,-118 25,-71 22,-155 -8,-252 -21,-68 -48,-123 -81,-163 -33,-41 -69,-68 -107,-81 -39,-13 -76,-14 -113,-2zm1045 -401c133,-22 247,3 343,75 97,72 156,175 178,310 15,90 10,173 -16,249 -26,76 -69,139 -129,188 -60,49 -137,81 -231,96 -123,21 -230,1 -321,-58 -110,-71 -176,-179 -200,-324 -23,-136 1,-253 70,-353 69,-100 171,-161 306,-183zm26 140c-64,11 -111,45 -140,101 -36,72 -46,158 -30,258 17,101 52,177 106,228 46,44 100,60 163,50 62,-10 108,-44 138,-100 34,-67 43,-151 27,-251 -12,-70 -31,-128 -58,-173 -27,-44 -59,-76 -95,-94 -36,-19 -74,-25 -111,-19zm672 -211l413 6 -1 124 -27 0c-26,-1 -42,1 -48,4 -10,4 -17,11 -21,19 -5,9 -7,25 -7,49l-3 239 267 -256c12,-12 19,-20 21,-24 3,-4 4,-7 4,-10 0,-6 -2,-11 -7,-14 -4,-3 -16,-5 -35,-5l-35 0 2 -125 385 5 -2 124 -13 0c-18,0 -30,1 -37,3 -7,2 -16,6 -26,12 -10,6 -23,17 -39,31l-207 186 240 354c21,31 36,49 46,54 13,8 32,13 56,13l16 0 -1 124 -430 -5 2 -124 17 0c31,0 51,-1 57,-4 7,-3 11,-7 11,-12 0,-5 -6,-17 -19,-37l-147 -227 -129 115 -1 91c0,23 2,38 6,47 3,9 9,15 16,19 8,3 23,5 45,6l34 0 -1 125 -414 -6 2 -124 31 0c24,1 40,-1 49,-5 8,-4 14,-11 17,-20 4,-7 6,-25 6,-53l6 -492c1,-27 -1,-45 -4,-54 -4,-9 -10,-16 -18,-20 -8,-5 -23,-7 -44,-8l-35 0 2 -125zm1762 150l23 310 -117 15c-26,-77 -59,-136 -101,-176 -42,-41 -89,-66 -143,-75 -34,-5 -62,-2 -85,9 -22,12 -34,27 -37,45 -4,21 2,42 17,63 15,20 44,42 89,64l153 76c84,42 142,88 173,139 30,52 40,108 30,168 -13,77 -52,137 -119,180 -74,48 -159,64 -254,49 -44,-8 -84,-20 -120,-38 -35,-18 -70,-45 -106,-80l-37 59 -89 -14 -2 -355 116 -10c15,75 46,140 94,196 48,57 106,90 172,101 30,5 56,5 77,1 21,-5 38,-14 50,-27 13,-13 20,-27 23,-42 4,-26 -4,-50 -24,-72 -21,-22 -59,-47 -114,-74l-133 -67c-20,-10 -47,-26 -80,-50 -33,-24 -58,-47 -74,-69 -16,-22 -28,-49 -36,-81 -8,-32 -9,-65 -4,-98 8,-47 27,-88 58,-124 32,-36 74,-61 127,-78 54,-16 110,-20 170,-10 73,12 135,43 186,92l31 -41 86 14zm757 222l419 159c53,20 95,43 126,67 31,25 54,54 70,87 17,33 26,68 27,105 1,38 -5,74 -18,110 -28,72 -77,122 -147,151 -71,29 -152,26 -244,-9l-135 -52 -60 158c-8,20 -11,33 -10,39 0,9 3,17 9,23 5,6 16,13 33,19l40 15 -44 117 -386 -147 44 -117 27 10c23,9 40,14 49,13 9,-1 16,-4 23,-11 6,-7 14,-22 24,-47l176 -463c10,-26 15,-43 15,-53 0,-9 -3,-17 -8,-23 -5,-7 -17,-14 -36,-21l-38 -14 44 -116zm239 248l-91 239 67 26c42,16 74,23 97,21 23,-1 43,-10 62,-24 19,-14 34,-34 44,-60 14,-39 12,-75 -7,-108 -15,-25 -43,-45 -84,-61l-88 -33zm659 126l350 220 -66 105 -34 -21c-15,-10 -28,-15 -37,-15 -9,0 -17,3 -25,8 -8,6 -19,20 -33,43l-174 277c-33,52 -52,94 -58,125 -7,32 -4,61 8,86 11,26 31,48 59,65 28,18 58,27 89,26 31,-1 59,-10 82,-26 24,-16 52,-50 84,-102l192 -306c8,-13 12,-23 12,-30 1,-10 -2,-19 -7,-26 -3,-5 -15,-14 -35,-26l-28 -18 66 -105 299 187 -66 105 -24 -15c-23,-14 -38,-22 -45,-22 -11,-1 -21,2 -30,8 -7,3 -18,18 -33,42l-189 301c-34,55 -71,97 -110,125 -53,38 -111,57 -175,56 -63,-1 -127,-21 -190,-60 -44,-28 -79,-60 -105,-96 -26,-37 -44,-77 -53,-120 -10,-43 -11,-83 -3,-119 9,-37 31,-84 68,-143l185 -294c17,-27 26,-46 28,-55 3,-10 2,-18 -2,-26 -4,-7 -15,-16 -33,-28l-33 -20 66 -106zm828 681l81 -94 365 315c56,48 94,92 114,134 20,41 28,82 22,123 -5,41 -21,76 -47,107 -20,23 -43,40 -69,53 -27,12 -55,19 -86,19 -30,1 -64,-5 -100,-19 23,34 38,63 46,86 11,34 13,69 5,105 -8,36 -25,69 -51,100 -31,36 -70,61 -117,73 -47,13 -96,11 -147,-5 -51,-17 -113,-56 -186,-118l-337 -290 82 -94 25 22c17,14 30,23 39,25 8,2 16,1 24,-3 7,-3 19,-15 37,-35l328 -381c17,-20 27,-34 29,-42 3,-8 2,-16 -1,-24 -3,-9 -13,-20 -30,-35l-26 -22zm78 385l71 61c36,32 67,52 90,60 23,9 45,11 65,5 21,-6 39,-17 53,-35 16,-18 25,-37 28,-57 2,-20 -2,-39 -14,-59 -11,-19 -37,-46 -78,-82l-71 -60 -144 167zm-85 99l-128 149c-18,21 -28,34 -29,39 -3,5 -3,11 -1,16 2,5 10,14 26,27l47 40c27,24 52,41 75,51 22,10 47,12 75,5 27,-6 51,-21 71,-45 18,-20 28,-41 31,-63 4,-21 -1,-44 -12,-66 -12,-23 -36,-50 -72,-81l-83 -72zm850 105l274 309 -93 83 -24 -27c-14,-15 -23,-24 -28,-27 -9,-4 -19,-5 -29,-2 -9,2 -21,10 -36,22l-384 341c-16,13 -25,22 -27,27 -2,4 -3,10 -1,16 2,6 8,15 18,27 36,41 71,69 104,83 33,15 71,21 113,19 43,-2 92,-15 148,-39l43 111 -324 138 -429 -485 93 -82 27 30c11,13 21,21 30,24 10,3 18,3 27,1 8,-2 20,-10 35,-23l382 -339c17,-14 27,-26 31,-35 5,-9 7,-17 5,-26 -1,-8 -7,-18 -18,-30l-30 -34 93 -82zm571 685l237 339 -103 71 -21 -31c-13,-18 -22,-29 -30,-32 -7,-4 -16,-4 -25,-2 -9,2 -24,11 -44,25l-410 285c-22,16 -36,27 -40,33 -5,7 -7,14 -6,22 1,10 6,22 16,36l25 37 -102 71 -236 -339 102 -71 19 27c14,20 25,32 32,36 7,4 15,5 23,3 9,-2 23,-9 42,-23l411 -286c23,-16 37,-28 43,-36 5,-8 7,-17 6,-26 0,-7 -7,-19 -19,-37l-22 -31 102 -71zm650 1077l41 76 -245 227 -84 -83c50,-70 81,-127 93,-171 17,-62 13,-117 -12,-164 -19,-35 -47,-62 -83,-81 -37,-19 -80,-27 -129,-23 -49,4 -101,20 -154,49 -81,43 -140,101 -177,173 -37,72 -37,141 -2,207 22,42 57,75 103,100 57,31 122,50 193,56l-20 119c-108,-12 -188,-32 -243,-60 -84,-44 -149,-107 -195,-192 -38,-70 -54,-143 -49,-220 5,-76 31,-148 77,-217 46,-68 107,-123 183,-164 76,-40 154,-61 234,-61 80,-1 152,18 218,56 65,38 117,92 154,162 38,71 56,142 54,212l43 -1zm277 692l57 183 -588 450c-31,24 -49,43 -54,55 -5,13 -3,33 6,61l-119 37 -120 -383 119 -37 8 23c7,21 14,35 23,42 9,6 17,8 26,6 7,-3 21,-11 42,-26l70 -49 -76 -245 -97 -3c-20,-1 -33,0 -39,2 -6,2 -12,6 -16,12 -4,6 -5,15 -4,26 0,7 5,25 14,55l-119 37 -98 -313 119 -38c6,21 13,35 19,43 7,8 15,14 24,17 9,4 25,7 48,8l755 37zm-470 121l50 161 210 -152 -260 -9zm710 619l13 79 -28 13 78 473 31 5 13 79 -295 155 -60 -104c48,-33 79,-57 93,-70 27,-26 47,-55 61,-85 10,-23 13,-45 10,-66 -2,-9 -5,-15 -11,-18 -5,-3 -17,-3 -34,0l-510 84c-31,5 -49,9 -56,13 -8,3 -13,7 -17,13 -4,5 -6,13 -6,21 0,9 3,32 9,68l-122 20 -68 -407 123 -21 4 25c5,27 9,45 14,52 5,7 12,12 22,14 10,2 29,1 58,-3l522 -87c15,-2 24,-5 27,-9 3,-4 4,-11 2,-21 -3,-21 -15,-43 -36,-66 -21,-23 -48,-42 -81,-57 -14,-6 -50,-18 -109,-35l24 -116 329 51zm103 940l6 414 -125 1 0 -37c0,-22 -3,-37 -7,-44 -4,-7 -11,-12 -19,-15 -9,-4 -26,-5 -51,-5l-499 7c-27,0 -45,2 -52,4 -8,3 -14,8 -17,15 -5,9 -8,22 -7,39l0 45 -124 1 -5 -413 124 -2 0 34c1,24 3,40 7,47 3,7 9,12 17,16 8,3 24,5 48,4l501 -6c28,0 46,-2 55,-6 9,-3 15,-9 20,-18 3,-5 5,-19 5,-41l-1 -38 124 -2zm-2 1037c-11,134 -62,239 -155,316 -93,76 -207,109 -343,99 -91,-7 -171,-32 -238,-75 -68,-44 -119,-100 -152,-170 -33,-70 -46,-152 -39,-247 9,-125 54,-224 132,-298 95,-90 216,-129 363,-118 137,11 246,61 326,152 81,91 116,205 106,341zm-143 -9c5,-64 -17,-117 -65,-159 -61,-52 -142,-83 -243,-90 -102,-8 -184,8 -247,48 -53,35 -82,84 -87,147 -5,63 17,116 64,157 57,50 137,78 238,86 71,6 132,1 181,-15 50,-16 88,-39 115,-70 26,-31 41,-65 44,-104zm47 737l-96 329 -574 92 309 90c26,8 43,11 51,10 11,-1 19,-4 25,-10 6,-5 12,-17 17,-36l12 -40 119 35 -98 336 -119 -35 10 -37c6,-19 7,-33 5,-42 -2,-9 -7,-16 -13,-22 -7,-5 -24,-12 -50,-19l-669 -196 49 -168 726 -115 -446 -131c-26,-7 -43,-10 -51,-10 -8,1 -15,5 -21,11 -6,6 -12,19 -18,38l-11 38 -119 -35 98 -335 119 35 -10 34c-6,20 -8,33 -6,42 1,8 5,15 13,22 7,7 20,13 37,18l496 145c19,5 34,7 44,6 10,-1 18,-4 24,-10 6,-5 11,-16 15,-31l13 -44 119 35z"/>
  <path id="1" class="fil4 str2" d="M2443 10359l-24 -83 287 -170 65 99c-63,58 -105,107 -127,148 -30,57 -37,111 -22,163 11,37 33,69 65,96 32,26 72,42 121,49 49,7 102,2 160,-15 89,-26 159,-71 210,-134 51,-62 66,-130 45,-201 -14,-46 -40,-85 -80,-119 -50,-43 -109,-75 -178,-96l45 -111c103,34 177,70 225,109 74,60 124,136 151,228 22,76 23,151 2,225 -21,73 -61,139 -120,196 -60,57 -131,98 -213,123 -83,24 -163,28 -242,11 -78,-16 -145,-49 -201,-100 -56,-51 -96,-115 -118,-191 -22,-77 -25,-150 -8,-218l-43 -9zm-144 -898c-10,-135 25,-246 105,-336 81,-90 189,-140 324,-150 92,-7 174,6 248,39 73,32 132,80 175,145 44,64 69,143 76,237 10,125 -19,230 -86,315 -80,103 -194,160 -341,171 -137,11 -252,-23 -345,-101 -93,-77 -145,-184 -156,-320zm143 -14c5,65 34,114 88,148 68,43 153,60 254,53 102,-8 180,-36 236,-85 48,-43 69,-95 64,-158 -4,-64 -33,-112 -87,-147 -64,-40 -146,-56 -247,-49 -72,6 -131,20 -178,43 -47,23 -81,51 -102,86 -22,35 -31,71 -28,109zm-163 -667l26 -342 543 -208 -321 -25c-28,-2 -45,-2 -52,1 -10,3 -18,8 -23,14 -4,7 -7,20 -9,40l-3 41 -124 -9 27 -349 124 9 -3 39c-2,19 0,33 4,42 4,8 10,14 18,18 7,4 25,7 52,9l695 53 -13 175 -686 262 463 36c27,2 44,1 52,-1 7,-3 13,-8 18,-15 5,-8 8,-21 10,-40l3 -41 124 10 -27 349 -124 -10 3 -36c2,-20 1,-34 -2,-42 -3,-7 -9,-14 -18,-19 -8,-5 -22,-8 -40,-9l-516 -40c-19,-1 -34,0 -43,3 -10,4 -17,8 -22,15 -4,6 -7,18 -8,34l-4 45 -124 -9zm248 -1685l19 -84 334 -10 9 118c-83,20 -144,42 -183,68 -53,35 -86,79 -98,132 -8,38 -5,76 10,115 15,38 42,72 82,102 39,29 88,51 148,64 89,20 172,16 247,-15 75,-30 121,-81 137,-154 11,-46 7,-94 -12,-143 -22,-61 -58,-118 -108,-170l93 -75c73,79 121,147 144,204 35,88 42,179 21,273 -18,77 -54,143 -108,198 -53,54 -120,91 -200,113 -80,21 -162,22 -246,3 -84,-19 -156,-54 -217,-106 -60,-52 -103,-114 -127,-186 -24,-72 -28,-147 -10,-224 18,-79 51,-143 99,-195l-34 -28zm126 -442l296 -642 301 32 -8 117c-51,-2 -94,2 -131,12 -36,11 -65,28 -86,51 -21,24 -40,54 -57,90l-54 118 205 95 18 -39c13,-28 20,-49 20,-61 0,-12 -4,-22 -11,-31 -8,-9 -26,-20 -55,-33l-31 -14 46 -100 346 160 -46 99 -35 -16c-24,-11 -43,-17 -57,-16 -13,0 -24,3 -32,11 -8,7 -19,26 -34,58l-16 34 188 87c20,9 33,13 38,14 5,0 10,-2 15,-7 5,-4 11,-15 19,-32l30 -65c22,-48 34,-92 34,-132 1,-40 -9,-81 -30,-122 -21,-41 -51,-79 -89,-113l83 -84 258 241 -307 666 -113 -52 9 -20c11,-26 17,-44 18,-54 0,-11 -4,-20 -12,-29 -5,-4 -21,-13 -49,-25l-446 -206c-24,-11 -41,-17 -50,-17 -8,-1 -16,1 -23,7 -7,4 -15,17 -24,36l-15 34 -113 -52zm429 -920l238 -380c30,-48 60,-85 91,-110 30,-25 63,-43 98,-52 36,-10 72,-12 109,-6 36,6 71,19 103,39 66,41 106,99 120,174 15,75 -4,154 -56,237l-77 123 143 90c17,11 30,17 36,17 9,2 17,0 24,-4 7,-4 16,-14 25,-29l23 -37 105 66 -219 351 -106 -67 16 -24c13,-21 20,-37 21,-45 1,-9 -1,-18 -6,-25 -5,-8 -19,-19 -41,-33l-420 -263c-23,-15 -40,-23 -49,-25 -9,-2 -17,-1 -24,3 -8,4 -17,14 -27,31l-22 35 -105 -66zm289 -186l218 137 38 -62c24,-37 37,-68 40,-90 3,-23 -1,-45 -11,-66 -11,-22 -28,-40 -51,-55 -35,-22 -71,-26 -108,-14 -27,10 -52,33 -75,70l-51 80zm241 -683l52 -61 29 14 312 -364 -16 -27 52 -61 308 128 -41 112c-56,-15 -94,-24 -113,-26 -38,-4 -73,-1 -105,8 -24,7 -43,18 -56,34 -7,7 -9,14 -8,20 2,6 9,15 22,26l392 338c24,20 39,31 46,35 7,3 14,5 21,4 6,-1 13,-4 20,-9 6,-6 22,-23 46,-51l94 81 -270 314 -94 -81 17 -20c18,-20 28,-35 30,-43 2,-9 1,-17 -3,-27 -4,-9 -18,-23 -40,-42l-400 -345c-12,-10 -20,-14 -25,-15 -5,0 -11,4 -18,12 -14,16 -23,40 -27,70 -5,31 -2,64 8,99 4,14 18,49 43,106l-104 56 -172 -285zm1121 -1106l255 178 -62 100c-76,-28 -143,-39 -201,-33 -58,7 -107,28 -147,64 -26,23 -42,47 -47,71 -5,25 -1,44 11,58 14,16 34,25 59,26 26,2 61,-8 107,-29l155 -70c86,-39 158,-54 217,-46 59,9 109,37 149,83 52,58 73,126 65,205 -9,88 -50,164 -123,228 -34,30 -68,53 -105,69 -36,16 -79,26 -129,32l23 66 -68 60 -276 -222 66 -97c67,36 138,53 211,51 75,-2 137,-25 187,-70 23,-20 39,-40 49,-59 9,-19 13,-38 11,-56 -2,-17 -8,-32 -19,-44 -17,-19 -40,-28 -70,-26 -30,1 -74,15 -130,41l-135 61c-21,9 -50,20 -90,30 -39,11 -72,16 -100,15 -27,-2 -56,-10 -86,-24 -30,-14 -56,-34 -78,-59 -32,-35 -51,-77 -59,-123 -8,-47 -2,-96 19,-148 21,-52 54,-98 100,-138 55,-48 118,-77 188,-87l-12 -49 65 -58zm711 -357l-61 -109 420 -235c65,-36 120,-56 166,-61 45,-4 86,3 123,22 36,18 65,46 85,81 14,26 23,54 25,83 3,29 -1,58 -11,87 -9,29 -27,58 -53,88 40,-10 72,-15 97,-14 35,1 69,12 100,31 32,20 57,47 77,82 23,42 33,87 29,135 -4,49 -23,94 -56,137 -33,42 -91,87 -174,134l-388 217 -61 -109 29 -16c20,-11 32,-20 37,-28 5,-7 7,-15 6,-23 -1,-8 -7,-24 -20,-47l-246 -439c-13,-23 -23,-37 -29,-42 -6,-5 -14,-7 -23,-7 -9,0 -23,6 -43,17l-29 16zm388 59l81 -46c42,-23 72,-45 88,-64 16,-19 25,-39 27,-60 1,-21 -3,-41 -15,-61 -11,-21 -26,-36 -44,-46 -18,-9 -38,-12 -60,-7 -22,4 -56,19 -104,45l-81 46 108 193zm64 114l95 171c14,24 23,37 27,41 4,4 9,6 15,6 5,0 16,-5 34,-15l54 -31c32,-17 56,-35 73,-53 17,-17 28,-40 31,-68 4,-28 -2,-55 -17,-83 -14,-23 -30,-40 -49,-51 -19,-10 -42,-14 -67,-11 -25,4 -58,17 -101,40l-95 54zm869 -951c128,-40 245,-31 351,27 105,58 178,152 219,282 27,87 33,170 18,249 -15,79 -49,147 -102,204 -52,57 -124,99 -215,127 -119,38 -228,33 -326,-12 -118,-56 -199,-154 -243,-294 -41,-131 -34,-251 20,-359 55,-109 148,-183 278,-224zm45 136c-62,19 -103,59 -124,119 -27,76 -25,162 6,259 30,98 76,168 136,211 52,37 108,46 168,27 61,-19 102,-58 123,-118 25,-71 22,-155 -8,-252 -21,-68 -48,-123 -81,-163 -33,-41 -69,-68 -107,-81 -39,-13 -76,-14 -113,-2zm1045 -401c133,-22 247,3 343,75 97,72 156,175 178,310 15,90 10,173 -16,249 -26,76 -69,139 -129,188 -60,49 -137,81 -231,96 -123,21 -230,1 -321,-58 -110,-71 -176,-179 -200,-324 -23,-136 1,-253 70,-353 69,-100 171,-161 306,-183zm26 140c-64,11 -111,45 -140,101 -36,72 -46,158 -30,258 17,101 52,177 106,228 46,44 100,60 163,50 62,-10 108,-44 138,-100 34,-67 43,-151 27,-251 -12,-70 -31,-128 -58,-173 -27,-44 -59,-76 -95,-94 -36,-19 -74,-25 -111,-19zm672 -211l413 6 -1 124 -27 0c-26,-1 -42,1 -48,4 -10,4 -17,11 -21,19 -5,9 -7,25 -7,49l-3 239 267 -256c12,-12 19,-20 21,-24 3,-4 4,-7 4,-10 0,-6 -2,-11 -7,-14 -4,-3 -16,-5 -35,-5l-35 0 2 -125 385 5 -2 124 -13 0c-18,0 -30,1 -37,3 -7,2 -16,6 -26,12 -10,6 -23,17 -39,31l-207 186 240 354c21,31 36,49 46,54 13,8 32,13 56,13l16 0 -1 124 -430 -5 2 -124 17 0c31,0 51,-1 57,-4 7,-3 11,-7 11,-12 0,-5 -6,-17 -19,-37l-147 -227 -129 115 -1 91c0,23 2,38 6,47 3,9 9,15 16,19 8,3 23,5 45,6l34 0 -1 125 -414 -6 2 -124 31 0c24,1 40,-1 49,-5 8,-4 14,-11 17,-20 4,-7 6,-25 6,-53l6 -492c1,-27 -1,-45 -4,-54 -4,-9 -10,-16 -18,-20 -8,-5 -23,-7 -44,-8l-35 0 2 -125zm1762 150l23 310 -117 15c-26,-77 -59,-136 -101,-176 -42,-41 -89,-66 -143,-75 -34,-5 -62,-2 -85,9 -22,12 -34,27 -37,45 -4,21 2,42 17,63 15,20 44,42 89,64l153 76c84,42 142,88 173,139 30,52 40,108 30,168 -13,77 -52,137 -119,180 -74,48 -159,64 -254,49 -44,-8 -84,-20 -120,-38 -35,-18 -70,-45 -106,-80l-37 59 -89 -14 -2 -355 116 -10c15,75 46,140 94,196 48,57 106,90 172,101 30,5 56,5 77,1 21,-5 38,-14 50,-27 13,-13 20,-27 23,-42 4,-26 -4,-50 -24,-72 -21,-22 -59,-47 -114,-74l-133 -67c-20,-10 -47,-26 -80,-50 -33,-24 -58,-47 -74,-69 -16,-22 -28,-49 -36,-81 -8,-32 -9,-65 -4,-98 8,-47 27,-88 58,-124 32,-36 74,-61 127,-78 54,-16 110,-20 170,-10 73,12 135,43 186,92l31 -41 86 14zm757 222l419 159c53,20 95,43 126,67 31,25 54,54 70,87 17,33 26,68 27,105 1,38 -5,74 -18,110 -28,72 -77,122 -147,151 -71,29 -152,26 -244,-9l-135 -52 -60 158c-8,20 -11,33 -10,39 0,9 3,17 9,23 5,6 16,13 33,19l40 15 -44 117 -386 -147 44 -117 27 10c23,9 40,14 49,13 9,-1 16,-4 23,-11 6,-7 14,-22 24,-47l176 -463c10,-26 15,-43 15,-53 0,-9 -3,-17 -8,-23 -5,-7 -17,-14 -36,-21l-38 -14 44 -116zm239 248l-91 239 67 26c42,16 74,23 97,21 23,-1 43,-10 62,-24 19,-14 34,-34 44,-60 14,-39 12,-75 -7,-108 -15,-25 -43,-45 -84,-61l-88 -33zm659 126l350 220 -66 105 -34 -21c-15,-10 -28,-15 -37,-15 -9,0 -17,3 -25,8 -8,6 -19,20 -33,43l-174 277c-33,52 -52,94 -58,125 -7,32 -4,61 8,86 11,26 31,48 59,65 28,18 58,27 89,26 31,-1 59,-10 82,-26 24,-16 52,-50 84,-102l192 -306c8,-13 12,-23 12,-30 1,-10 -2,-19 -7,-26 -3,-5 -15,-14 -35,-26l-28 -18 66 -105 299 187 -66 105 -24 -15c-23,-14 -38,-22 -45,-22 -11,-1 -21,2 -30,8 -7,3 -18,18 -33,42l-189 301c-34,55 -71,97 -110,125 -53,38 -111,57 -175,56 -63,-1 -127,-21 -190,-60 -44,-28 -79,-60 -105,-96 -26,-37 -44,-77 -53,-120 -10,-43 -11,-83 -3,-119 9,-37 31,-84 68,-143l185 -294c17,-27 26,-46 28,-55 3,-10 2,-18 -2,-26 -4,-7 -15,-16 -33,-28l-33 -20 66 -106zm828 681l81 -94 365 315c56,48 94,92 114,134 20,41 28,82 22,123 -5,41 -21,76 -47,107 -20,23 -43,40 -69,53 -27,12 -55,19 -86,19 -30,1 -64,-5 -100,-19 23,34 38,63 46,86 11,34 13,69 5,105 -8,36 -25,69 -51,100 -31,36 -70,61 -117,73 -47,13 -96,11 -147,-5 -51,-17 -113,-56 -186,-118l-337 -290 82 -94 25 22c17,14 30,23 39,25 8,2 16,1 24,-3 7,-3 19,-15 37,-35l328 -381c17,-20 27,-34 29,-42 3,-8 2,-16 -1,-24 -3,-9 -13,-20 -30,-35l-26 -22zm78 385l71 61c36,32 67,52 90,60 23,9 45,11 65,5 21,-6 39,-17 53,-35 16,-18 25,-37 28,-57 2,-20 -2,-39 -14,-59 -11,-19 -37,-46 -78,-82l-71 -60 -144 167zm-85 99l-128 149c-18,21 -28,34 -29,39 -3,5 -3,11 -1,16 2,5 10,14 26,27l47 40c27,24 52,41 75,51 22,10 47,12 75,5 27,-6 51,-21 71,-45 18,-20 28,-41 31,-63 4,-21 -1,-44 -12,-66 -12,-23 -36,-50 -72,-81l-83 -72zm850 105l274 309 -93 83 -24 -27c-14,-15 -23,-24 -28,-27 -9,-4 -19,-5 -29,-2 -9,2 -21,10 -36,22l-384 341c-16,13 -25,22 -27,27 -2,4 -3,10 -1,16 2,6 8,15 18,27 36,41 71,69 104,83 33,15 71,21 113,19 43,-2 92,-15 148,-39l43 111 -324 138 -429 -485 93 -82 27 30c11,13 21,21 30,24 10,3 18,3 27,1 8,-2 20,-10 35,-23l382 -339c17,-14 27,-26 31,-35 5,-9 7,-17 5,-26 -1,-8 -7,-18 -18,-30l-30 -34 93 -82zm571 685l237 339 -103 71 -21 -31c-13,-18 -22,-29 -30,-32 -7,-4 -16,-4 -25,-2 -9,2 -24,11 -44,25l-410 285c-22,16 -36,27 -40,33 -5,7 -7,14 -6,22 1,10 6,22 16,36l25 37 -102 71 -236 -339 102 -71 19 27c14,20 25,32 32,36 7,4 15,5 23,3 9,-2 23,-9 42,-23l411 -286c23,-16 37,-28 43,-36 5,-8 7,-17 6,-26 0,-7 -7,-19 -19,-37l-22 -31 102 -71zm650 1077l41 76 -245 227 -84 -83c50,-70 81,-127 93,-171 17,-62 13,-117 -12,-164 -19,-35 -47,-62 -83,-81 -37,-19 -80,-27 -129,-23 -49,4 -101,20 -154,49 -81,43 -140,101 -177,173 -37,72 -37,141 -2,207 22,42 57,75 103,100 57,31 122,50 193,56l-20 119c-108,-12 -188,-32 -243,-60 -84,-44 -149,-107 -195,-192 -38,-70 -54,-143 -49,-220 5,-76 31,-148 77,-217 46,-68 107,-123 183,-164 76,-40 154,-61 234,-61 80,-1 152,18 218,56 65,38 117,92 154,162 38,71 56,142 54,212l43 -1zm277 692l57 183 -588 450c-31,24 -49,43 -54,55 -5,13 -3,33 6,61l-119 37 -120 -383 119 -37 8 23c7,21 14,35 23,42 9,6 17,8 26,6 7,-3 21,-11 42,-26l70 -49 -76 -245 -97 -3c-20,-1 -33,0 -39,2 -6,2 -12,6 -16,12 -4,6 -5,15 -4,26 0,7 5,25 14,55l-119 37 -98 -313 119 -38c6,21 13,35 19,43 7,8 15,14 24,17 9,4 25,7 48,8l755 37zm-470 121l50 161 210 -152 -260 -9zm710 619l13 79 -28 13 78 473 31 5 13 79 -295 155 -60 -104c48,-33 79,-57 93,-70 27,-26 47,-55 61,-85 10,-23 13,-45 10,-66 -2,-9 -5,-15 -11,-18 -5,-3 -17,-3 -34,0l-510 84c-31,5 -49,9 -56,13 -8,3 -13,7 -17,13 -4,5 -6,13 -6,21 0,9 3,32 9,68l-122 20 -68 -407 123 -21 4 25c5,27 9,45 14,52 5,7 12,12 22,14 10,2 29,1 58,-3l522 -87c15,-2 24,-5 27,-9 3,-4 4,-11 2,-21 -3,-21 -15,-43 -36,-66 -21,-23 -48,-42 -81,-57 -14,-6 -50,-18 -109,-35l24 -116 329 51zm103 940l6 414 -125 1 0 -37c0,-22 -3,-37 -7,-44 -4,-7 -11,-12 -19,-15 -9,-4 -26,-5 -51,-5l-499 7c-27,0 -45,2 -52,4 -8,3 -14,8 -17,15 -5,9 -8,22 -7,39l0 45 -124 1 -5 -413 124 -2 0 34c1,24 3,40 7,47 3,7 9,12 17,16 8,3 24,5 48,4l501 -6c28,0 46,-2 55,-6 9,-3 15,-9 20,-18 3,-5 5,-19 5,-41l-1 -38 124 -2zm-2 1037c-11,134 -62,239 -155,316 -93,76 -207,109 -343,99 -91,-7 -171,-32 -238,-75 -68,-44 -119,-100 -152,-170 -33,-70 -46,-152 -39,-247 9,-125 54,-224 132,-298 95,-90 216,-129 363,-118 137,11 246,61 326,152 81,91 116,205 106,341zm-143 -9c5,-64 -17,-117 -65,-159 -61,-52 -142,-83 -243,-90 -102,-8 -184,8 -247,48 -53,35 -82,84 -87,147 -5,63 17,116 64,157 57,50 137,78 238,86 71,6 132,1 181,-15 50,-16 88,-39 115,-70 26,-31 41,-65 44,-104zm47 737l-96 329 -574 92 309 90c26,8 43,11 51,10 11,-1 19,-4 25,-10 6,-5 12,-17 17,-36l12 -40 119 35 -98 336 -119 -35 10 -37c6,-19 7,-33 5,-42 -2,-9 -7,-16 -13,-22 -7,-5 -24,-12 -50,-19l-669 -196 49 -168 726 -115 -446 -131c-26,-7 -43,-10 -51,-10 -8,1 -15,5 -21,11 -6,6 -12,19 -18,38l-11 38 -119 -35 98 -335 119 35 -10 34c-6,20 -8,33 -6,42 1,8 5,15 13,22 7,7 20,13 37,18l496 145c19,5 34,7 44,6 10,-1 18,-4 24,-10 6,-5 11,-16 15,-31l13 -44 119 35z"/>
  <path class="fil3" d="M4806 12799l289 274 -78 82 -26 -25c-16,-14 -27,-23 -35,-25 -7,-2 -15,-1 -23,3 -8,3 -19,13 -35,30l-311 328c-17,18 -27,30 -30,37 -3,7 -3,14 0,21 2,9 10,19 21,30l32 30 -78 82 -289 -274 78 -82 24 22c16,16 29,25 36,28 7,2 15,2 22,-1 8,-3 19,-12 33,-28l313 -329c18,-19 28,-32 31,-40 3,-8 3,-16 1,-25 -2,-6 -11,-16 -26,-31l-27 -25 78 -82zm294 293l258 205 -109 522 182 -228c15,-20 24,-33 26,-40 3,-9 3,-18 0,-25 -3,-7 -12,-16 -27,-28l-31 -25 70 -88 264 209 -70 89 -30 -23c-14,-12 -26,-19 -35,-20 -9,-2 -17,-1 -24,3 -7,4 -18,16 -33,35l-393 495 -133 -105 138 -660 -262 330c-15,19 -24,32 -25,39 -2,7 -1,14 2,22 3,8 13,18 27,29l31 24 -70 89 -264 -210 70 -88 27 22c15,12 27,19 34,20 8,2 16,1 25,-2 8,-4 17,-13 28,-25l291 -367c11,-14 18,-26 20,-35 2,-9 2,-17 -1,-24 -3,-7 -10,-15 -22,-25l-34 -27 70 -88zm647 506l373 213c84,49 144,100 178,156 35,55 52,118 52,187 -1,70 -22,141 -64,215 -29,51 -63,92 -101,124 -39,32 -82,55 -130,70 -49,15 -95,21 -138,18 -33,-3 -75,-13 -127,-33 -52,-19 -92,-37 -121,-53l-328 -188 56 -98 25 14c21,12 35,18 44,18 8,1 17,-2 25,-8 7,-5 16,-18 29,-40l222 -387c12,-22 19,-37 19,-45 1,-8 -1,-15 -6,-22 -5,-7 -18,-17 -39,-29l-25 -14 56 -98zm195 262l-252 442c-9,15 -13,24 -13,29 -1,6 1,12 6,17 4,5 16,13 36,24 56,32 104,49 145,50 42,0 83,-12 124,-39 41,-27 76,-67 106,-119 30,-51 46,-101 50,-150 4,-49 -3,-88 -21,-119 -18,-31 -52,-61 -102,-90l-79 -45zm556 149l363 165 -47 102 -33 -15c-19,-9 -33,-13 -41,-12 -7,0 -14,4 -21,10 -6,6 -14,19 -23,39l-188 412c-10,22 -15,37 -16,45 0,8 2,14 7,20 5,7 15,15 30,21l40 18 -47 103 -362 -165 46 -103 30 14c21,9 35,14 43,14 8,0 15,-3 21,-8 6,-5 13,-18 22,-37l189 -414c10,-23 16,-38 16,-47 0,-9 -2,-17 -8,-24 -4,-5 -15,-12 -34,-21l-33 -15 46 -102zm610 248l177 51 62 674c3,35 9,58 17,69 8,10 25,19 51,26l-31 109 -371 -107 31 -108 23 6c20,6 36,7 45,4 10,-3 16,-9 18,-17 2,-6 3,-21 2,-44l-4 -79 -238 -68 -52 71c-11,15 -17,25 -19,31 -1,6 -1,12 2,18 3,6 9,12 18,16 6,4 24,10 53,18l-31 108 -304 -87 31 -108c19,5 34,8 44,7 10,-1 19,-4 26,-9 8,-5 18,-16 31,-32l419 -549zm-144 416l155 45 -14 -237 -141 192zm976 -211l428 56c55,7 99,19 133,35 35,15 63,36 86,62 23,26 39,55 49,88 10,32 13,66 8,100 -9,69 -43,124 -103,164 -59,40 -136,53 -230,41l-138 -18 -20 151c-2,19 -3,32 0,37 2,8 7,14 13,18 7,5 19,8 36,10l41 6 -15 112 -395 -53 15 -111 28 3c24,3 40,4 48,1 8,-2 15,-7 19,-14 5,-7 9,-22 12,-46l59 -446c3,-24 3,-41 1,-49 -2,-9 -6,-15 -12,-20 -6,-4 -19,-8 -38,-10l-39 -6 14 -111zm280 171l-30 231 69 9c42,5 74,5 95,-1 21,-6 39,-17 53,-34 15,-16 23,-37 27,-62 5,-37 -6,-69 -32,-94 -19,-19 -50,-32 -91,-37l-91 -12zm338 -88l388 -8 2 113 -12 0c-25,1 -41,2 -47,4 -7,2 -13,6 -17,13 -5,6 -7,13 -7,19 0,8 5,25 14,50l153 401 145 -418c7,-20 11,-35 10,-42 0,-11 -4,-19 -11,-24 -7,-5 -22,-7 -46,-7l-25 1 -2 -113 316 -6 2 112c-26,1 -44,4 -53,10 -13,9 -26,32 -39,67l-232 634 -184 4 -262 -629c-10,-25 -18,-41 -24,-48 -6,-6 -13,-12 -23,-15 -11,-4 -25,-6 -44,-5l-2 -113zm869 -57l76 -10 12 27 458 -61 6 -29 76 -10 137 272 -102 52c-30,-44 -51,-73 -63,-86 -25,-25 -51,-44 -80,-57 -22,-10 -43,-13 -62,-10 -10,1 -16,4 -19,9 -3,5 -3,15 -1,31l61 465c4,27 7,44 10,51 3,7 7,12 12,15 5,4 12,5 21,6 8,0 30,-2 65,-7l15 112 -395 52 -14 -112 23 -3c27,-3 44,-7 51,-12 6,-4 11,-10 14,-19 3,-9 3,-27 -1,-53l-63 -475c-1,-14 -4,-22 -8,-25 -3,-3 -10,-4 -20,-3 -20,3 -42,14 -65,32 -23,18 -42,42 -58,72 -6,12 -19,45 -37,98l-111 -24 62 -298zm991 472c29,-7 57,-3 82,14 26,16 42,38 49,68 6,29 2,56 -14,82 -16,26 -39,42 -68,48 -30,7 -57,3 -83,-13 -25,-16 -41,-39 -48,-68 -7,-30 -2,-57 14,-83 16,-25 38,-41 68,-48zm348 -718l363 -164 47 103 -32 14c-18,8 -28,14 -32,18 -7,7 -11,16 -11,25 -1,9 2,21 9,37l192 425c8,17 13,27 17,30 3,3 8,5 14,5 6,0 16,-3 30,-10 48,-21 83,-45 107,-70 23,-26 40,-57 51,-95 11,-38 14,-85 9,-140l114 -10 26 320 -567 257 -47 -103 36 -16c14,-7 25,-14 30,-21 6,-7 9,-15 9,-23 1,-8 -3,-20 -10,-37l-191 -422c-8,-18 -15,-30 -22,-36 -7,-6 -15,-10 -22,-11 -8,0 -19,3 -34,9l-39 18 -47 -103zm665 -332l67 -38 21 20 401 -228 -5 -29 67 -38 229 200 -75 86c-44,-29 -75,-47 -91,-55 -32,-14 -64,-22 -95,-23 -24,-1 -45,4 -62,14 -8,5 -13,10 -14,15 0,6 3,16 11,30l232 407c14,24 23,39 28,44 5,5 11,8 17,10 6,1 13,0 21,-3 8,-3 27,-13 58,-31l56 98 -346 197 -56 -98 21 -12c23,-13 37,-23 42,-30 5,-6 7,-14 6,-23 0,-9 -7,-26 -20,-49l-237 -416c-7,-12 -13,-19 -17,-20 -5,-2 -11,0 -20,5 -18,10 -34,28 -48,53 -14,26 -23,56 -27,90 -1,13 0,48 2,104l-111 20 -55 -300zm593 -300l337 -264c77,-60 147,-96 212,-107 64,-11 128,-4 192,23 65,26 123,73 175,139 37,47 62,93 77,141 15,47 21,96 16,146 -4,51 -15,96 -35,135 -15,29 -41,65 -78,105 -37,41 -69,72 -95,92l-297 233 -70 -89 22 -17c19,-15 30,-26 34,-34 3,-7 4,-16 2,-27 -2,-7 -11,-21 -26,-41l-276 -351c-15,-20 -27,-32 -34,-35 -7,-4 -15,-5 -23,-3 -8,2 -22,10 -42,26l-22 17 -69 -89zm316 -82l314 400c11,14 18,21 22,23 6,3 12,3 18,1 6,-2 18,-10 36,-24 51,-40 85,-78 101,-116 16,-38 19,-81 10,-129 -9,-48 -33,-96 -70,-143 -36,-47 -76,-81 -120,-103 -44,-22 -83,-30 -119,-25 -35,5 -75,25 -121,60l-71 56zm884 -128c22,-20 48,-30 78,-29 30,0 56,12 76,34 21,22 31,47 30,78 0,30 -12,55 -33,76 -23,21 -49,31 -79,30 -30,-1 -55,-12 -76,-34 -21,-22 -31,-48 -30,-78 1,-30 12,-56 34,-77z"/>
  <path id="1" class="fil4 str2" d="M4806 12799l289 274 -78 82 -26 -25c-16,-14 -27,-23 -35,-25 -7,-2 -15,-1 -23,3 -8,3 -19,13 -35,30l-311 328c-17,18 -27,30 -30,37 -3,7 -3,14 0,21 2,9 10,19 21,30l32 30 -78 82 -289 -274 78 -82 24 22c16,16 29,25 36,28 7,2 15,2 22,-1 8,-3 19,-12 33,-28l313 -329c18,-19 28,-32 31,-40 3,-8 3,-16 1,-25 -2,-6 -11,-16 -26,-31l-27 -25 78 -82zm294 293l258 205 -109 522 182 -228c15,-20 24,-33 26,-40 3,-9 3,-18 0,-25 -3,-7 -12,-16 -27,-28l-31 -25 70 -88 264 209 -70 89 -30 -23c-14,-12 -26,-19 -35,-20 -9,-2 -17,-1 -24,3 -7,4 -18,16 -33,35l-393 495 -133 -105 138 -660 -262 330c-15,19 -24,32 -25,39 -2,7 -1,14 2,22 3,8 13,18 27,29l31 24 -70 89 -264 -210 70 -88 27 22c15,12 27,19 34,20 8,2 16,1 25,-2 8,-4 17,-13 28,-25l291 -367c11,-14 18,-26 20,-35 2,-9 2,-17 -1,-24 -3,-7 -10,-15 -22,-25l-34 -27 70 -88zm647 506l373 213c84,49 144,100 178,156 35,55 52,118 52,187 -1,70 -22,141 -64,215 -29,51 -63,92 -101,124 -39,32 -82,55 -130,70 -49,15 -95,21 -138,18 -33,-3 -75,-13 -127,-33 -52,-19 -92,-37 -121,-53l-328 -188 56 -98 25 14c21,12 35,18 44,18 8,1 17,-2 25,-8 7,-5 16,-18 29,-40l222 -387c12,-22 19,-37 19,-45 1,-8 -1,-15 -6,-22 -5,-7 -18,-17 -39,-29l-25 -14 56 -98zm195 262l-252 442c-9,15 -13,24 -13,29 -1,6 1,12 6,17 4,5 16,13 36,24 56,32 104,49 145,50 42,0 83,-12 124,-39 41,-27 76,-67 106,-119 30,-51 46,-101 50,-150 4,-49 -3,-88 -21,-119 -18,-31 -52,-61 -102,-90l-79 -45zm556 149l363 165 -47 102 -33 -15c-19,-9 -33,-13 -41,-12 -7,0 -14,4 -21,10 -6,6 -14,19 -23,39l-188 412c-10,22 -15,37 -16,45 0,8 2,14 7,20 5,7 15,15 30,21l40 18 -47 103 -362 -165 46 -103 30 14c21,9 35,14 43,14 8,0 15,-3 21,-8 6,-5 13,-18 22,-37l189 -414c10,-23 16,-38 16,-47 0,-9 -2,-17 -8,-24 -4,-5 -15,-12 -34,-21l-33 -15 46 -102zm610 248l177 51 62 674c3,35 9,58 17,69 8,10 25,19 51,26l-31 109 -371 -107 31 -108 23 6c20,6 36,7 45,4 10,-3 16,-9 18,-17 2,-6 3,-21 2,-44l-4 -79 -238 -68 -52 71c-11,15 -17,25 -19,31 -1,6 -1,12 2,18 3,6 9,12 18,16 6,4 24,10 53,18l-31 108 -304 -87 31 -108c19,5 34,8 44,7 10,-1 19,-4 26,-9 8,-5 18,-16 31,-32l419 -549zm-144 416l155 45 -14 -237 -141 192zm976 -211l428 56c55,7 99,19 133,35 35,15 63,36 86,62 23,26 39,55 49,88 10,32 13,66 8,100 -9,69 -43,124 -103,164 -59,40 -136,53 -230,41l-138 -18 -20 151c-2,19 -3,32 0,37 2,8 7,14 13,18 7,5 19,8 36,10l41 6 -15 112 -395 -53 15 -111 28 3c24,3 40,4 48,1 8,-2 15,-7 19,-14 5,-7 9,-22 12,-46l59 -446c3,-24 3,-41 1,-49 -2,-9 -6,-15 -12,-20 -6,-4 -19,-8 -38,-10l-39 -6 14 -111zm280 171l-30 231 69 9c42,5 74,5 95,-1 21,-6 39,-17 53,-34 15,-16 23,-37 27,-62 5,-37 -6,-69 -32,-94 -19,-19 -50,-32 -91,-37l-91 -12zm338 -88l388 -8 2 113 -12 0c-25,1 -41,2 -47,4 -7,2 -13,6 -17,13 -5,6 -7,13 -7,19 0,8 5,25 14,50l153 401 145 -418c7,-20 11,-35 10,-42 0,-11 -4,-19 -11,-24 -7,-5 -22,-7 -46,-7l-25 1 -2 -113 316 -6 2 112c-26,1 -44,4 -53,10 -13,9 -26,32 -39,67l-232 634 -184 4 -262 -629c-10,-25 -18,-41 -24,-48 -6,-6 -13,-12 -23,-15 -11,-4 -25,-6 -44,-5l-2 -113zm869 -57l76 -10 12 27 458 -61 6 -29 76 -10 137 272 -102 52c-30,-44 -51,-73 -63,-86 -25,-25 -51,-44 -80,-57 -22,-10 -43,-13 -62,-10 -10,1 -16,4 -19,9 -3,5 -3,15 -1,31l61 465c4,27 7,44 10,51 3,7 7,12 12,15 5,4 12,5 21,6 8,0 30,-2 65,-7l15 112 -395 52 -14 -112 23 -3c27,-3 44,-7 51,-12 6,-4 11,-10 14,-19 3,-9 3,-27 -1,-53l-63 -475c-1,-14 -4,-22 -8,-25 -3,-3 -10,-4 -20,-3 -20,3 -42,14 -65,32 -23,18 -42,42 -58,72 -6,12 -19,45 -37,98l-111 -24 62 -298zm991 472c29,-7 57,-3 82,14 26,16 42,38 49,68 6,29 2,56 -14,82 -16,26 -39,42 -68,48 -30,7 -57,3 -83,-13 -25,-16 -41,-39 -48,-68 -7,-30 -2,-57 14,-83 16,-25 38,-41 68,-48zm348 -718l363 -164 47 103 -32 14c-18,8 -28,14 -32,18 -7,7 -11,16 -11,25 -1,9 2,21 9,37l192 425c8,17 13,27 17,30 3,3 8,5 14,5 6,0 16,-3 30,-10 48,-21 83,-45 107,-70 23,-26 40,-57 51,-95 11,-38 14,-85 9,-140l114 -10 26 320 -567 257 -47 -103 36 -16c14,-7 25,-14 30,-21 6,-7 9,-15 9,-23 1,-8 -3,-20 -10,-37l-191 -422c-8,-18 -15,-30 -22,-36 -7,-6 -15,-10 -22,-11 -8,0 -19,3 -34,9l-39 18 -47 -103zm665 -332l67 -38 21 20 401 -228 -5 -29 67 -38 229 200 -75 86c-44,-29 -75,-47 -91,-55 -32,-14 -64,-22 -95,-23 -24,-1 -45,4 -62,14 -8,5 -13,10 -14,15 0,6 3,16 11,30l232 407c14,24 23,39 28,44 5,5 11,8 17,10 6,1 13,0 21,-3 8,-3 27,-13 58,-31l56 98 -346 197 -56 -98 21 -12c23,-13 37,-23 42,-30 5,-6 7,-14 6,-23 0,-9 -7,-26 -20,-49l-237 -416c-7,-12 -13,-19 -17,-20 -5,-2 -11,0 -20,5 -18,10 -34,28 -48,53 -14,26 -23,56 -27,90 -1,13 0,48 2,104l-111 20 -55 -300zm593 -300l337 -264c77,-60 147,-96 212,-107 64,-11 128,-4 192,23 65,26 123,73 175,139 37,47 62,93 77,141 15,47 21,96 16,146 -4,51 -15,96 -35,135 -15,29 -41,65 -78,105 -37,41 -69,72 -95,92l-297 233 -70 -89 22 -17c19,-15 30,-26 34,-34 3,-7 4,-16 2,-27 -2,-7 -11,-21 -26,-41l-276 -351c-15,-20 -27,-32 -34,-35 -7,-4 -15,-5 -23,-3 -8,2 -22,10 -42,26l-22 17 -69 -89zm316 -82l314 400c11,14 18,21 22,23 6,3 12,3 18,1 6,-2 18,-10 36,-24 51,-40 85,-78 101,-116 16,-38 19,-81 10,-129 -9,-48 -33,-96 -70,-143 -36,-47 -76,-81 -120,-103 -44,-22 -83,-30 -119,-25 -35,5 -75,25 -121,60l-71 56zm884 -128c22,-20 48,-30 78,-29 30,0 56,12 76,34 21,22 31,47 30,78 0,30 -12,55 -33,76 -23,21 -49,31 -79,30 -30,-1 -55,-12 -76,-34 -21,-22 -31,-48 -30,-78 1,-30 12,-56 34,-77z"/>
  <circle class="fil2 str1" cx="8890" cy="8890" r="5198"/>
 </g>
</svg>
