<?xml version="1.0" encoding="UTF-8"?>
<!DOCTYPE svg PUBLIC "-//W3C//DTD SVG 1.1//EN" "http://www.w3.org/Graphics/SVG/1.1/DTD/svg11.dtd">
<!-- Creator: CorelDRAW X7 -->
<svg xmlns="http://www.w3.org/2000/svg" xml:space="preserve" width="430mm" height="290mm" version="1.1" style="shape-rendering:geometricPrecision; text-rendering:geometricPrecision; image-rendering:optimizeQuality; fill-rule:evenodd; clip-rule:evenodd"
viewBox="0 0 43000 29000"
 xmlns:xlink="http://www.w3.org/1999/xlink">
 <defs>
  <style type="text/css">
   <![CDATA[
    .fil1 {fill:#000066}
    .fil5 {fill:#003399}
    .fil3 {fill:#0050B2}
    .fil11 {fill:#35478D}
    .fil4 {fill:#4D4D4D}
    .fil12 {fill:#4D4D4D}
    .fil9 {fill:#586BA1}
    .fil10 {fill:#C8B8D4}
    .fil8 {fill:#DC3300}
    .fil6 {fill:#F5A383}
    .fil7 {fill:#FDF4EC}
    .fil2 {fill:#FF6600}
    .fil0 {fill:url(#id0)}
   ]]>
  </style>
  <radialGradient id="id0" gradientUnits="userSpaceOnUse" gradientTransform="matrix(1.29968 0.461213 -0.182772 0.811734 -2976 -5339)" cx="14905.7" cy="8156.95" r="407.92" fx="14905.7" fy="8156.95">
   <stop offset="0" style="stop-opacity:1; stop-color:#003399"/>
   <stop offset="1" style="stop-opacity:1; stop-color:#000066"/>
  </radialGradient>
 </defs>
 <g id="Layer_x0020_1">
  <metadata id="CorelCorpID_0Corel-Layer"/>
  <path class="fil0" d="M14078 12756c734,256 2935,172 3857,132l-46 -464 -663 -81c-155,9 -466,41 -604,34 -473,-26 -391,70 -519,-279l-129 -892 23 -204c539,-266 2294,-116 2985,-86l179 -1 1646 13 51 -94 -389 -2386c-185,-844 -576,-3473 -773,-3882 -2962,0 -5925,5 -8887,0 -1362,-2 -1494,-149 -1353,620 125,684 228,1226 344,1921l702 3793 3678 0c-215,514 -333,1327 -102,1856z"/>
  <path class="fil1" d="M18981 14158c-2330,146 -1580,3049 -1231,5533 91,653 299,1635 312,2250l959 3 -3 -420c-118,-853 109,-1340 168,-2043l204 0c156,670 1054,2409 1124,3133 225,20 427,13 631,-42 435,-119 305,-55 446,-333 -121,-567 -202,-1322 -251,-1848 -37,-402 -48,-580 -108,-914 -74,-411 -177,-531 -205,-916l-486 -1553c25,7 2017,524 2457,581 1144,146 2028,70 2930,-330 191,-331 295,-266 428,-619 79,-209 73,-596 114,-939l-214 -1107c-562,53 -503,-58 -959,-221 -321,-115 -646,-109 -1002,-105 -575,6 -1425,31 -1892,-182 -753,-75 -2758,-99 -3422,72z"/>
  <path class="fil2" d="M22557 6707c-1514,60 -1539,1538 -2088,1741l389 2386c296,-213 505,-549 882,-816l102 -38c91,-150 4,-156 109,0 6,828 277,1191 296,1944 401,473 1137,354 1839,370 640,15 1352,95 1963,83 248,-39 533,-46 750,-97 394,-92 275,-79 482,-305l291 -2506c-37,-1002 -20,-1507 -417,-2147 -281,-455 -800,-539 -1365,-779l-271 -138 -609 -125c-804,898 -1371,139 -2353,427z"/>
  <path class="fil3" d="M30791 12330l-22 511c-704,255 -1884,85 -2696,82 -426,-1 -2252,93 -2491,-128 -245,182 -900,92 -1289,95 -165,2 -588,19 -726,-3 -344,-55 -271,140 -381,-217l-118 226 -3496 5 -26 -229c-276,347 137,178 -552,226 -189,13 -524,-15 -725,-24l-312 11 -68 -461 46 464c-922,40 -3123,124 -3857,-132 -463,243 -4410,85 -5312,85l0 1226 1225 0 0 408c208,-273 156,376 184,-393l940 -19 1 208c643,-378 2822,-204 3881,-204l3760 18c254,47 103,4 224,73 664,-171 2669,-147 3422,-72l3941 -1 2324 -27 -39 417c178,-173 159,276 159,-408l2963 0c0,547 -3,146 104,306 -14,-511 3,-188 100,-311l934 -2 88 244c0,-462 -20,-76 102,-237l614 0 -40 -1172c-415,-12 -881,58 -1233,-93 -228,170 -912,90 -1305,53 -10,-348 -9,-693 -17,-1041 -8,-302 -48,-609 99,-788 -274,-46 -143,38 -169,372 -14,172 17,455 14,640 -7,415 -50,964 -251,292z"/>
  <path class="fil4" d="M26256 14594l214 1107 377 0c-22,273 -139,740 -240,985 -145,352 -270,496 -679,573 -902,400 -1786,476 -2930,330 -440,-57 -2432,-574 -2457,-581l486 1553c2908,0 2678,-270 2657,916l-18 2339c-82,459 -198,155 -195,1031 4,819 5,1638 5,2457l-1240 0 10 613 1332 0c-55,667 -209,906 613,715l0 -715 1839 0c0,442 -49,502 102,817l409 0c151,-315 102,-375 102,-817 525,-12 293,92 511,-205l-324 -392 -2537 -16c0,-1050 141,-2382 -146,-3327 -175,-578 -58,-2655 -58,-3416 1134,0 3240,158 3984,0 0,-804 164,-1170 -510,-1328 121,-523 306,-634 306,-1532 446,-236 862,-559 760,-1226l39 -417 -2324 27 -88 509z"/>
  <path class="fil5" d="M9991 14475l-1935 11958c-54,399 -100,496 -152,896 -48,368 -90,415 453,427l1098 -5032c219,-929 1852,-7939 1661,-8453l-1 -208 -940 19c-28,769 24,120 -184,393z"/>
  <path class="fil5" d="M31855 14373c-5,590 193,1251 296,1745l2391 11094c106,467 33,531 580,544l-1847 -11740c-90,-444 -166,-1331 -298,-1712l-88 -244 -934 2c-97,123 -114,-200 -100,311z"/>
  <path class="fil1" d="M22046 1804c611,-75 870,-260 1506,41 880,417 906,1102 1081,1361 70,105 1150,819 -132,1335l-49 360c87,595 190,967 458,1379l609 125c1283,-347 232,-3012 -222,-3762 -339,-562 -676,-1065 -1353,-1306 -692,-246 -1568,27 -1898,467z"/>
  <path class="fil1" d="M21637 2319c-123,527 -155,614 -23,1145 124,496 86,620 155,1175 30,245 83,951 152,1175 114,367 316,545 636,742l581 -68c65,-638 6,-693 -368,-1010 -425,-360 -1116,-1260 -225,-1741 894,-482 334,-222 757,-839 196,291 244,362 587,565l410 -225c-48,-611 -447,-1111 -978,-1282 -725,-235 -1260,91 -1684,363z"/>
  <path class="fil6" d="M22557 6556l0 151c982,-288 1549,471 2353,-427 -268,-412 -371,-784 -458,-1379 -330,412 -460,581 -682,602 -557,52 -185,-11 -328,-120 409,-614 498,433 958,-715 -95,-141 -15,-40 -151,-161 -168,-150 50,48 -116,-90 -431,-359 -312,-388 -244,-954 -343,-203 -391,-274 -587,-565 -423,617 137,357 -757,839 -891,481 -200,1381 225,1741 374,317 433,372 368,1010l-581 68z"/>
  <path class="fil7" d="M20858 10834l-51 94c-209,111 -537,471 -667,671 -19,21 -50,23 -59,61l-765 703c-406,291 -697,219 -1047,511 201,9 536,37 725,24 689,-48 276,121 552,-226l1263 -49c15,-444 67,-465 -94,-793 223,-44 680,-105 863,-121 331,-29 262,-6 669,215 -19,-753 -290,-1116 -296,-1944l-109 0c-72,118 -6,139 -102,38 -377,267 -586,603 -882,816z"/>
  <path class="fil4" d="M27281 11975c-44,420 -27,99 77,201 377,-38 1211,-90 1482,-255 100,-519 78,-1324 -70,-1718 -86,-233 -175,-363 -419,-501 -205,-116 -511,-209 -779,-233l-291 2506z"/>
  <path class="fil7" d="M16103 12098l84 -195c36,429 58,68 -84,195zm-129 -892l129 892c128,349 46,253 519,279 138,7 449,-25 604,-34 355,-604 1768,-696 1756,-1427 -691,-30 -2446,-180 -2985,86 132,117 176,-152 69,102 -3,8 -25,43 -29,51 -7,11 -42,35 -63,51z"/>
  <path class="fil6" d="M20809 12623l2377 47c110,357 37,162 381,217 138,22 561,5 726,3 389,-3 1044,87 1289,-95l341 -58c-156,-284 53,-292 -398,-225l524 -41 0 -94c-611,12 -1323,-68 -1963,-83 -702,-16 -1438,103 -1839,-370 -407,-221 -338,-244 -669,-215 -183,16 -640,77 -863,121 161,328 109,349 94,793z"/>
  <path class="fil6" d="M20514 22614c180,448 510,2063 510,2690l-204 79 160 62c76,336 138,297 478,345 567,-541 484,-1538 336,-2529l252 -1c-433,-690 -175,-44 -455,-1021 -141,278 -11,214 -446,333 -204,55 -406,62 -631,42z"/>
  <path class="fil6" d="M18062 21941c0,549 -124,1063 -309,1420 -229,443 -564,644 -815,1026 756,210 1006,-19 1796,-962l452 -578c-83,-345 -78,-1101 -168,-1323l3 420 -959 -3z"/>
  <path class="fil8" d="M32420 12802l32 -881 16 -919 -308 62 -409 -3 -204 -53 -350 18c-147,179 -107,486 -99,788 8,348 7,693 17,1041 393,37 1077,117 1305,-53z"/>
  <path class="fil6" d="M17226 12343l663 81 68 461 312 -11c350,-292 641,-220 1047,-511l765 -703c9,-38 40,-40 59,-61 -395,-6 -288,-56 -587,-256 -167,-112 -104,-19 -242,-156 -136,-136 -75,-59 -150,-272l-179 1c12,731 -1401,823 -1756,1427z"/>
  <path class="fil8" d="M16938 24387c-1087,708 -403,1211 546,850 658,-250 820,-1080 1497,-1261l118 609 291 4c-13,-558 -121,-290 -43,-861 68,-495 157,-649 -161,-881l-452 578c-790,943 -1040,1172 -1796,962z"/>
  <path class="fil8" d="M20980 25445l-75 472c36,553 -122,950 599,809 408,-80 653,-391 742,-809l-10 -613c92,-307 99,-215 89,-587 -10,-395 -48,-54 34,-516 35,-203 75,-184 -1,-533 -130,-592 -301,-408 -312,-408l-252 1c148,991 231,1988 -336,2529 -340,-48 -402,-9 -478,-345z"/>
  <path class="fil9" d="M28840 11921c-271,165 -1105,217 -1482,255 -104,-102 -121,219 -77,-201 -207,226 -88,213 -482,305 -217,51 -502,58 -750,97l0 94 2329 -65c303,-25 340,-16 513,-196 428,-138 1287,-279 1736,-289l-31 409 16 365 -4689 42 -341 58c239,221 2065,127 2491,128 812,3 1992,173 2696,-82l22 -511 -73 -612c-630,13 -1105,203 -1878,203z"/>
  <path class="fil8" d="M22046 1804c-261,181 -319,178 -409,515 424,-272 959,-598 1684,-363 531,171 930,671 978,1282l-410 225c-68,566 -187,595 244,954 166,138 -52,-60 116,90 136,121 56,20 151,161 -460,1148 -549,101 -958,715 143,109 -229,172 328,120 222,-21 352,-190 682,-602l49 -360c1282,-516 202,-1230 132,-1335 -175,-259 -201,-944 -1081,-1361 -636,-301 -895,-116 -1506,-41z"/>
  <path class="fil10" d="M26049 12471l-524 41c451,-67 242,-59 398,225l4689 -42 -16 -365 -1705 0 0 -120c-173,180 -210,171 -513,196l-2329 65z"/>
  <path class="fil2" d="M26256 14594l88 -509 -3941 1c467,213 1317,188 1892,182 356,-4 681,-10 1002,105 456,163 397,274 959,221z"/>
  <polygon class="fil11" points="23186,12670 20809,12623 19546,12672 19572,12901 23068,12896 "/>
  <path class="fil2" d="M20140 11599c130,-200 458,-560 667,-671l-1646 -13c75,213 14,136 150,272 138,137 75,44 242,156 299,200 192,250 587,256z"/>
  <path class="fil1" d="M31751 11061l409 3c9,-500 102,-525 102,-1084l-307 511 0 -817c-328,378 -204,580 -204,1387z"/>
  <path class="fil1" d="M31197 11026l350 -18c-262,-1153 -60,-1112 -511,-1232 0,1038 147,721 161,1250z"/>
  <path class="fil12" d="M20905 25917l75 -472 -160 -62c-180,242 -174,176 -204,534l289 0z"/>
 </g>
</svg>
