<?xml version="1.0" encoding="UTF-8"?>
<!DOCTYPE svg PUBLIC "-//W3C//DTD SVG 1.1//EN" "http://www.w3.org/Graphics/SVG/1.1/DTD/svg11.dtd">
<!-- Creator: CorelDRAW X7 -->
<svg xmlns="http://www.w3.org/2000/svg" xml:space="preserve" width="423mm" height="205mm" version="1.1" style="shape-rendering:geometricPrecision; text-rendering:geometricPrecision; image-rendering:optimizeQuality; fill-rule:evenodd; clip-rule:evenodd"
viewBox="0 0 42300 20500"
 xmlns:xlink="http://www.w3.org/1999/xlink">
 <defs>
  <style type="text/css">
   <![CDATA[
    .fil7 {fill:#000066}
    .fil0 {fill:#000066}
    .fil5 {fill:#00008E}
    .fil9 {fill:#003399}
    .fil18 {fill:#003399}
    .fil16 {fill:#140066}
    .fil20 {fill:#180050}
    .fil4 {fill:#271201}
    .fil19 {fill:#734D29}
    .fil21 {fill:#A5764F}
    .fil15 {fill:#B1996B}
    .fil22 {fill:#D2E9F1}
    .fil6 {fill:#D9B27B}
    .fil12 {fill:#DC0E00}
    .fil14 {fill:#DC3300}
    .fil10 {fill:#DC824D}
    .fil3 {fill:#F9E1B6}
    .fil13 {fill:#FC3600}
    .fil11 {fill:#FF6600}
    .fil2 {fill:#FF6600}
    .fil1 {fill:#FFC387}
    .fil8 {fill:white}
    .fil17 {fill:white}
   ]]>
  </style>
 </defs>
 <g id="Layer_x0020_1">
  <metadata id="CorelCorpID_0Corel-Layer"/>
  <g id="_2125707275392">
   <path class="fil0" d="M0 5807l0 14693 13143 0c-40,-387 -301,-1366 -451,-1669 -223,-790 -963,-1982 -1015,-2122 -40,1 -1279,552 -1780,664 -259,118 -841,181 -1182,110 -425,-89 -619,-207 -804,-545 -292,-534 -6,-541 -203,-801 -67,-89 -82,-127 -133,-212 -75,-125 -164,-290 -235,-422 -82,-154 -139,-341 35,-453l-105 -400c-135,-6 -298,-77 -357,-165 -120,-118 -58,-157 -46,-360 9,-146 18,-356 -9,-496 -194,-3 -420,37 -645,12 -187,-20 -355,-104 -515,-150 -187,-66 -412,-270 -450,-377 -115,-325 37,-356 135,-584 57,-85 118,-170 167,-249l314 -477c66,-93 80,-186 136,-269 104,-271 181,-371 166,-705 -113,-79 -148,-157 -65,-288 -188,-398 -488,-1090 -589,-1566 -118,-554 -278,-1292 -224,-1907 -470,24 -1187,336 -1329,884 -28,109 -32,211 -5,331 28,121 62,135 107,222 -101,-105 -196,-271 -206,-428 -36,-558 292,-806 704,-1029l107 -74c-409,40 -1170,250 -1348,628 -311,657 326,1140 448,1369 -415,-164 -1105,-1193 -458,-1988 584,-716 1403,-683 2082,-850 -12,-286 216,-906 343,-1187 28,-61 52,-112 83,-178l97 -142c28,-166 127,-214 173,-370 -493,57 -1558,897 -2054,1184 -747,431 -1406,788 -2366,830 -388,17 -1051,-62 -1347,-268l-238 -154c-5,-2 -12,-6 -16,-9l-65 -33z"/>
   <path class="fil1" d="M13280 8124c-132,89 -191,236 -302,302 -22,276 -86,523 -141,790 -48,234 -141,504 -148,776 66,87 11,562 179,1077 366,1121 1521,1225 1474,2238l-49 0c1,16 37,258 -7,175 -89,-27 -43,35 -48,-121 -3,-76 12,-105 -44,-168 6,190 -41,533 -156,638 -23,-67 42,-228 43,-339 1,-142 -42,-246 -55,-355 -40,326 4,684 -528,948 -353,175 -1015,144 -1122,-39 273,49 537,168 849,30 223,-98 372,-233 435,-515 143,-641 -312,-994 -629,-1279 -1273,-1145 -1156,-2063 -1373,-2482 -97,101 -337,671 -419,846 -71,153 -123,293 -166,469 -71,294 -32,297 -27,564 23,40 -4,2 34,46 329,376 987,378 1397,397 -249,158 -950,52 -1217,-54 -479,-189 -583,-501 -742,-606l87 240c-143,-34 -313,-513 -348,-627 -72,-236 -107,-627 -70,-885 -288,75 -540,149 -792,218l-335 79c-511,230 -1501,407 -1839,580 -14,202 17,140 -39,359 -54,207 277,679 168,858 -123,10 -29,24 -136,-28 -19,91 -62,92 -168,121 -89,25 -114,23 -166,-28 -57,33 67,52 -100,21 8,65 20,-22 -65,-43l-22 64c-22,93 7,3 -4,31 -71,-10 -122,-41 -185,-73 -47,41 -86,98 -161,133l-71 15c-56,-2 -35,6 -86,-21 -8,14 -82,-15 -14,80 -68,-36 -21,-128 -118,25 -56,-139 -31,-55 -73,-71l-56 -44c-3,-3 -11,-11 -13,-13 -4,-4 -20,-20 -27,-26 -109,116 -1,96 -42,201 -93,-27 39,-11 -106,-102l-61 62c-64,64 38,16 -45,39 -4,-18 16,-104 18,-178 -185,19 -157,29 -225,127 -2,4 -7,11 -9,14 -43,60 10,14 -34,38 10,-67 22,34 2,-98 -98,228 -250,259 -135,584 38,107 263,311 450,377 -13,-116 4,-76 -65,-126 136,13 396,123 798,143 160,8 800,-60 840,-43 -102,91 -243,138 -413,164 27,140 18,350 9,496 -12,203 -74,242 46,360 27,-75 5,1 220,-100 94,-44 127,-74 238,-101l1626 -209c172,-8 90,-50 135,46 77,-34 190,-96 270,-93 8,424 -1515,981 -2027,1022 -174,112 -117,299 -35,453 71,132 160,297 235,422 51,85 66,123 133,212 197,260 -89,267 203,801 185,338 379,456 804,545 341,71 923,8 1182,-110l-125 6c56,-89 -3,-18 71,-64 183,-113 -37,80 88,-68l203 -134c75,-31 183,-59 277,-95 1215,-472 1496,-597 2582,-1302 183,-119 322,-262 429,-196 -120,61 -75,-44 -121,74l96 3c9,94 11,107 -50,164 2,4 8,9 9,10l53 65 -120 132c5,5 12,10 16,13l112 77c-140,56 -55,-11 -96,68 80,105 -7,61 102,82 -22,17 -29,19 -58,39 -11,8 -30,31 -33,24 -3,-5 -12,9 -17,13 5,4 14,8 17,10 116,78 42,40 43,66l2 54c-227,-3 67,3 -106,-72l-7 165c90,48 26,37 123,59 -26,66 -17,24 -37,51 -136,182 -35,170 -40,291 -5,132 -39,29 -22,112l7 16c0,54 69,-30 -21,35l-81 30c40,279 81,-126 111,32 9,46 -77,112 -119,155l157 24 -44 75c-150,-1 -49,15 -164,-56 -20,114 9,39 -35,76 33,80 13,19 56,72 36,44 9,-26 36,43 -52,97 -12,121 -37,235 -24,106 -62,48 -133,19 32,116 -35,51 89,108l-37 148c0,3 2,11 2,13l-24 55c-2,2 33,63 -96,-22l-27 89c0,3 2,10 2,12l-19 192c-5,224 -47,69 -56,188 -8,107 11,-19 37,87l1 20c22,85 9,-8 69,104 -91,-39 -18,-19 -115,-36l-51 152c-58,-51 -14,-47 -104,-55 150,303 411,1282 451,1669l106 0c107,-611 295,-1104 532,-1626 113,-249 230,-491 370,-712l1399 -1953c25,-31 42,-46 64,-70 37,-40 65,-87 117,-144l569 -621c24,-26 31,-36 59,-68l111 -87 -96 -253c0,-1 1,-8 1,-10 0,-4 0,-16 0,-21l-18 -91c-8,6 -15,14 -20,19 -4,6 -13,13 -18,19l-24 36c-37,72 29,-4 -9,65 -60,-111 26,-109 -148,-108l30 -14c-24,-88 -36,-119 -6,-197 -85,5 -98,21 -157,-14 0,-7 4,-16 5,-20l8 -37c0,-3 2,-12 2,-15 0,-3 -1,-11 -1,-13 0,-2 -4,-10 -4,-11 -14,-65 31,5 -14,-18 -19,-57 11,-14 -33,-51 -72,26 -48,18 -74,76 12,-101 36,-73 29,-142l-1 -138c-11,-38 72,-25 -56,-40 -5,-1 -14,-2 -19,-3 -81,-10 -115,-32 -130,6 9,-109 -2,-61 -20,-103l-34 -216c89,18 -30,15 85,59 10,-105 -17,-19 49,-124l-82 -14c49,-44 80,-2 6,-141 -1,-2 -4,-10 -5,-12l-14 -25c-3,-4 -28,-24 -34,-26 -67,-21 -6,-12 -56,21 -3,-25 -20,-79 -20,-84 15,-79 -43,23 51,-35 -33,-116 -91,-195 5,-292 -51,-27 -86,-20 -109,-67 -24,-50 -20,-6 19,-26 22,-12 6,73 28,-8 2,-5 11,0 15,-3l-157 -119c-168,-21 33,54 -50,14 30,-41 40,-59 59,-116 24,-70 -2,-27 26,-97 -171,-84 -501,-304 -644,-424 -288,-240 -262,-195 -506,-552 -6,2 -14,7 -18,9 -138,60 -200,25 -378,35 -249,14 -156,-136 -265,5 0,-4 7,-42 14,-82 -173,-6 -331,-84 -330,-172 -91,-118 -205,-245 -180,-474 20,-178 124,-322 232,-398 278,-197 787,-64 875,262 62,0 46,13 117,-61 313,-332 418,-757 448,-1227 36,-569 -145,-1088 -400,-1452l-34 -55c-12,98 35,47 -117,100 -302,103 -657,378 -773,680 152,-25 318,-79 496,40 579,384 15,973 -131,1045 18,-35 25,-41 46,-74 243,-388 222,-808 -185,-844 -159,-13 -227,61 -336,133 -44,379 229,327 203,713 -16,250 -260,414 -516,442 31,-86 65,-111 104,-169 368,-543 -135,-733 54,-1366 130,-437 631,-852 992,-850 -244,-306 -719,-197 -967,30z"/>
   <path class="fil2" d="M37227 11001c-164,20 -362,109 -491,97 -7,4 -15,8 -20,10 -5,2 -14,8 -20,10l-2007 502c-60,140 -182,508 -241,602 -83,-3 -403,-102 -499,-132 -142,-46 -339,-111 -492,-133 -135,-2 -486,99 -624,136 -187,51 -444,65 -568,187 21,30 17,13 30,67l26 278c53,429 333,2535 309,2607 277,144 1610,477 1989,564 121,28 602,102 690,172 -30,51 -11,25 -59,61 -9,7 -786,384 -884,506l720 327c-42,42 -410,298 -649,518 -675,619 -598,681 -900,1420 -99,243 -107,155 -130,279 -23,118 -203,405 -237,434l114 987 6194 0c-83,-468 -100,-959 -168,-1423 -35,-233 -58,-478 -91,-696 -35,-240 -33,-478 -89,-708 -346,-391 -1077,-849 -1692,-804 -177,12 -512,95 -623,167 17,-161 333,-238 491,-301 302,-120 366,-81 715,-83 -122,-90 -322,-59 -454,-131 96,-63 337,-17 447,1 138,22 257,79 381,117 276,86 584,314 655,330 -98,-1043 -268,-2100 -383,-3153 -115,-1039 -275,-2077 -385,-3090l-1055 275z"/>
   <path class="fil3" d="M17565 9188c244,-10 403,4 627,25 214,21 362,58 576,76 45,-44 -1,-11 68,-52 112,-67 543,-296 614,-365 89,-86 109,-78 196,-146 227,-176 528,-477 717,-685 117,-130 245,-233 353,-358l652 -746c213,-239 232,-266 389,-139 -50,77 -112,112 -169,174 -63,69 -100,106 -152,164 -119,133 -199,230 -306,354 -522,608 -765,827 -1310,1329 -137,127 -602,421 -796,518 23,13 1,6 58,25l127 27c80,15 124,25 208,31 54,-69 69,-59 138,-101l537 -361c35,-23 255,-210 301,-252 69,-62 196,-234 282,-266 -52,-142 -65,-122 -152,-217 90,19 142,79 206,134l34 30c21,-104 489,-562 638,-733 120,-139 499,-611 650,-700l146 81c-103,117 -226,245 -339,364 -193,203 -444,542 -666,758 -61,59 -118,105 -176,168 -164,177 -80,186 -190,144l131 274 10 -234c138,232 29,718 -186,1003 -62,82 -167,169 -205,259 372,-163 1502,-1312 1830,-1748 101,-135 134,-127 276,-304l294 -281 170 72 -351 349c-15,16 -24,27 -37,42 -24,28 -47,55 -74,84 -401,441 -1218,1404 -1708,1747 -100,70 -282,171 -370,255l152 57c343,65 454,-127 765,-371 145,-114 241,-253 331,-329 123,-104 220,-220 330,-330l407 -438c230,-249 577,-727 886,-911 35,10 68,18 102,32 51,22 3,-1 51,27l29 23c-51,38 -63,33 -102,57l-495 505c-307,335 -766,890 -1112,1210 -50,46 -98,107 -143,148l-314 265c-63,64 -51,68 -141,117 22,27 -4,45 141,56l397 -23c705,-29 1668,-299 2272,-622l729 -380c-143,116 -252,270 -549,423 -6,3 -13,6 -18,9l-35 19c-292,175 -458,281 -805,406 -627,224 -1178,372 -1885,383 -176,3 -487,-39 -609,-17 -58,30 -73,49 -127,80 -178,103 -527,303 -708,345 -82,19 -173,-46 -260,-83 114,-78 309,-131 429,-189 162,-77 336,-128 388,-232l-100 -51c-33,-12 -56,-15 -89,-22 -261,-55 -204,35 -504,156 -60,24 -121,41 -172,63 -46,20 -100,52 -148,69 -140,51 -279,-20 -308,-84l406 -156c19,-7 62,-25 77,-35 46,-29 20,-6 49,-43 -447,61 -399,91 -969,124 -217,13 -767,67 -838,242 51,51 408,254 487,297 594,319 907,513 1577,832 623,295 1656,718 2344,875 540,123 775,248 1281,14 279,-129 987,-566 1147,-757 127,-152 233,-227 374,-366 209,-206 516,-624 681,-876l245 -390 94 2c-62,-67 67,-18 -60,-52 32,-96 94,-140 145,-238 47,-90 89,-150 163,-215 23,-67 238,-384 289,-446 63,-79 106,-133 160,-209 73,-102 67,-96 156,-184 131,-188 371,-433 521,-579 109,-144 178,-167 290,-279 118,-118 256,-113 256,-303 -145,-2 -200,52 -355,59l-313 16c-89,1 -448,7 -525,-56l-30 15c-158,-6 -485,-25 -596,-123 -92,6 -157,6 -237,-38 -141,-29 -486,-74 -559,-163 -82,22 -650,-171 -727,-203 -208,-89 -526,-192 -742,-266 -689,-236 -1373,-597 -2019,-933 -435,-226 -1155,-661 -1527,-981 -321,-276 -200,-383 -917,196l-896 950c-923,854 -1176,1304 -2618,1894 -157,64 -681,295 -733,346 8,129 235,298 345,414 637,675 595,476 996,454l752 -6z"/>
   <path class="fil3" d="M25733 17754c156,-99 273,-63 251,158 132,-22 283,115 405,185l1939 967c246,140 535,237 820,343 301,111 1527,562 1781,539 189,-18 624,-288 769,-395 367,-271 389,-376 582,-566l54 144c-8,-235 -57,-116 211,-475l274 -393c21,-58 136,-223 170,-265 73,-220 464,-695 594,-835 121,-129 579,-555 783,-626 98,-122 875,-499 884,-506 48,-36 29,-10 59,-61 -88,-70 -569,-144 -690,-172 -379,-87 -1712,-420 -1989,-564l-150 -54c-128,-23 -495,-173 -617,-238 -17,-70 -11,-93 -21,-159l-43 -140 18 287c-90,-28 -205,-81 -298,-122 -102,-45 -190,-74 -281,-119 -162,-79 -342,-151 -524,-243l-1004 -527c-193,-88 -821,-556 -971,-559 -359,-7 -914,282 -1124,409 -674,408 -1340,1288 -1948,1907l-391 374c-377,264 -539,370 -1002,531 77,214 847,726 1102,895 137,91 334,189 357,280z"/>
   <path class="fil4" d="M13317 20500l10604 0c-77,-351 -241,-694 -405,-961 -100,-162 -168,-273 -278,-408 -108,-133 -212,-224 -291,-347 -127,92 -144,335 -321,433 48,-194 135,-382 167,-597 -118,-42 -185,-164 -293,-256 -62,-52 -85,-61 -146,-119 -61,-59 -106,-78 -132,-116 -70,-50 -86,-70 -154,-109 -57,215 -282,893 -391,1006 -47,-118 -54,30 -38,-154 18,-216 126,-221 44,-467 -33,-74 -12,-132 3,-239 -13,22 -28,60 -44,84 -40,61 3,8 -47,52 28,-139 -4,-178 54,-294l16 -339c-26,33 -13,11 -36,63 -4,9 -13,35 -15,43 -80,264 18,202 -221,671 -24,-38 -10,8 -13,-48 -2,-21 1,-30 5,-49l38 -83c136,-223 43,-192 37,-204 -28,74 -21,115 -46,203 -14,-28 -11,8 -12,-55 0,-6 0,-14 1,-20l54 -290c15,-117 26,-243 33,-366 -161,-71 -470,-351 -602,-463 -260,-219 -302,-187 -345,-444 -37,-219 -33,-163 -80,-189 -16,325 -147,493 -231,733 -45,-76 -13,-153 8,-240 76,-316 72,-471 43,-785 -194,-112 -285,-171 -593,-151 -82,-30 -75,-47 -128,-104 -24,-26 -45,-44 -63,-68 -33,-43 -19,-13 -37,-64 -154,-93 -378,-398 -492,-517l-612 -708c-76,-79 -81,-86 -210,-99 -363,193 -1028,710 -1387,1031l-695 677c-30,31 -64,64 -93,93l-399 444c-99,128 -196,227 -300,361 -201,257 -397,514 -588,784 -426,605 -1250,2074 -1369,2675z"/>
   <path class="fil5" d="M31471 147c17,31 215,229 254,274 62,73 219,257 240,345 -119,-75 5,-38 -110,-81 54,95 55,86 -78,110 91,51 40,-16 78,76 -173,9 -26,-1 -156,59 -232,-85 -36,-55 -252,-4 -100,24 111,27 -31,0l-144 -33c-43,58 -36,84 -88,124l858 1012c415,428 1022,1196 1478,1693 399,-144 1195,-899 1753,-1187 244,-126 417,-194 677,-95 -224,19 -408,79 -543,188 378,-41 553,-250 1201,40 241,108 765,399 821,654 -468,-404 -1028,-598 -1723,-303 -428,182 -948,756 -1251,1056 121,-45 205,-176 356,-203 -60,150 -171,217 -272,329 -112,124 -179,140 -295,258 -40,42 -16,14 -33,38 60,139 228,299 339,433l2569 2949 1865 -4122c152,-324 330,-717 450,-1024l348 -789c76,-167 72,-105 216,-468 155,-393 254,-248 -146,-669l-459 -548c-59,-80 -142,-82 -197,-259l-6511 0c6,144 0,136 -83,216 -77,76 -304,383 -444,456 -88,-87 -547,-524 -546,-672l-5 0c-57,92 -74,55 -136,147z"/>
   <path class="fil6" d="M25651 7323c73,89 418,134 559,163l738 -628c298,-301 401,-470 592,-675 190,-205 220,-454 381,-626l97 60c-34,111 -74,208 -130,311l-168 279c-194,274 -903,1122 -1273,1317 111,98 438,117 596,123l-164 -59c133,-44 396,-312 520,-438l133 -129c168,-167 554,-660 655,-856l180 -375c55,34 67,36 137,60 -47,64 -53,175 -96,254 -66,120 -73,137 -229,163l111 85 -546 695c-86,110 -550,577 -671,585 77,63 436,57 525,56l636 -628c260,-310 513,-633 665,-1042l136 61 -169 377c-139,189 -23,22 -81,161l-28 45c-190,266 -139,259 -267,236 33,148 22,114 -92,218l-228 277c-21,19 -35,32 -54,51 -141,140 -177,121 -205,228 155,-7 210,-61 355,-59 0,190 -138,185 -256,303 -112,112 -181,135 -290,279l143 -55c129,-120 328,-263 463,-409l421 -451c212,-231 381,-516 533,-786 71,-127 53,-231 202,-257 -14,503 -459,964 -760,1338l-400 389c-69,60 -66,48 -103,130 199,-2 337,-77 460,26 -23,70 -115,166 -165,220l-425 500c-23,27 -24,31 -45,61l-728 1010 -156 -56c41,-65 57,-54 117,-106l-62 1c-77,-8 33,39 -33,-10 -4,-3 -22,-31 -27,-38l-47 126 -100 -124c-3,-3 -9,-9 -13,-15l68 -12c55,-16 32,55 42,-33 -40,-17 -30,28 -120,-12 -64,-29 34,-11 -64,-41l-99 15c27,-81 46,-82 12,-166 -2,3 -3,6 -3,11l-14 121c-46,-19 -41,-26 -57,-36 -44,-30 0,-21 -46,-32l-39 200c-74,-31 -31,38 -81,-91 -74,65 -116,125 -163,215 -51,98 -113,142 -145,238 127,34 -2,-15 60,52 184,39 456,155 663,224 154,52 580,187 734,191 233,19 1064,-197 1288,-256 50,-14 89,-29 140,-45 35,-11 44,-16 81,-20 209,-17 -46,70 89,0 1,0 37,-29 53,-38 53,-30 106,-40 162,-57 1676,-512 2249,-1395 2457,-1468 -48,175 -96,148 -149,181 7,126 37,51 -9,177 -70,189 -150,327 -198,568 -40,201 -104,729 123,796 142,-93 237,-556 659,-991 296,-306 533,-486 885,-777 317,-262 577,-476 833,-830 278,-384 397,-686 374,-1289 -1355,-43 -2530,-122 -3748,-460 -575,-160 -1771,-574 -2334,-836l-716 -346c-33,37 -240,529 -378,764 -376,642 -1035,1341 -1704,1717z"/>
   <path class="fil7" d="M0 5716c127,50 241,132 394,190 149,56 295,100 475,137 995,201 2077,-250 2845,-706 243,-144 480,-314 723,-465 447,-276 1054,-749 1537,-893 227,-68 520,-133 767,-139 104,-3 223,22 280,-19 -544,-140 -1337,87 -1746,303l-497 297c-74,45 -117,96 -164,123 -150,90 -810,58 -1008,29 -413,-61 -865,-226 -1190,-447 -135,-92 -195,-202 -286,-265 -158,-110 -157,-119 -258,-271 -38,-55 -69,-97 -104,-160 -14,-26 -31,-64 -46,-89 -18,-29 -42,-54 -64,-93 -109,-187 -172,-409 -161,-620 6,-123 -24,-149 -25,-264 69,85 69,266 123,443 43,141 102,282 167,379 -43,-198 -101,-310 -132,-572 -34,-298 -8,-409 3,-669 4,-81 2,-171 29,-238 16,-39 45,-79 64,-138 36,-116 39,-242 165,-275 -43,197 -101,304 -126,534l100 -182c46,-87 29,-101 106,-164 10,-64 12,-42 54,-94 183,-232 -11,-101 321,-339 56,-39 127,-84 207,-109 -61,86 -119,87 -202,163 -188,172 -346,345 -367,688 -52,826 789,1773 1797,1722 112,-6 213,-25 312,-41l305 -73c-173,6 -435,-153 -537,-238 -295,-242 -544,-565 -529,-1001 4,-115 17,-242 62,-335 35,-71 106,-172 189,-181 -103,170 -109,389 -60,617 45,211 154,356 269,495 94,112 280,241 442,324 282,145 507,134 592,192 189,-33 345,-163 506,-77 361,195 273,238 858,404 183,52 517,-1 531,3 -118,-73 -1556,-203 -2346,-1846 -91,-189 -123,-325 -165,-524 -23,-108 -82,-493 -33,-615l83 520c-1,-60 53,-20 23,-269 -24,-208 30,-729 147,-868l-4430 0 0 5716z"/>
   <path class="fil1" d="M9463 7502c64,140 267,262 434,316 277,90 378,12 598,-49 -171,223 -478,150 -780,129 43,47 19,51 155,82 -171,152 -453,-97 -604,-193 -32,-21 -77,-54 -106,-82 -282,-272 -475,-808 -483,-1264 -572,328 -1588,521 -2294,682 -233,53 -276,26 -306,63l-252 94c-136,33 -42,-25 -273,66l-78 -111c76,-25 21,2 69,-26 45,-27 3,3 42,-38 4,-3 8,-10 11,-14 4,-3 8,-10 11,-14l52 -55 -77 -83c-91,11 -221,18 -294,64 -54,615 106,1353 224,1907 101,476 401,1168 589,1566 131,32 178,85 279,126 -34,-242 -303,-888 -289,-1069 90,-48 159,-88 280,-80 102,102 321,1061 406,1239 178,-78 417,-78 437,-203l0 -22c-1,-182 117,-111 242,-263 -6,-4 -12,-16 -13,-19l-16 -135c-1,-269 75,-459 234,-620l4 620c97,-99 46,-99 205,-137 488,-117 356,-46 725,14 104,16 63,-15 156,39 170,3 221,65 389,28l1082 -333c85,35 15,-21 45,73l113 -588c47,-189 98,-359 158,-530 241,-682 548,-1515 357,-2254 -52,-201 -117,-328 -216,-471 -89,-128 -182,-275 -322,-353 -117,253 -286,538 -469,720 -59,60 -61,32 -92,113 -46,124 36,-13 -12,44 -65,78 80,-53 -27,14 -71,45 -319,367 -337,530 0,5 0,13 -1,17l-3 34c-1,4 -3,12 -4,16 -51,300 114,322 51,410z"/>
   <path class="fil8" d="M40921 15189l433 3551c-102,-47 -206,-129 -281,-197l-341 -224c-4,-3 -13,-5 -16,-14 -2,-10 -10,-10 -15,-16 -71,-44 -77,-57 -139,-104l-318 -228c-4,-3 -13,-6 -16,-15 -3,-10 -11,-10 -16,-16 -67,-25 -80,-55 -138,-102 -93,-74 -234,-178 -313,-256 -88,-48 -152,-92 -182,-166 -97,-48 -76,-61 -152,-124 -52,-43 -37,-21 -78,-52 -85,-65 -23,9 -76,-81 -69,-50 -171,-110 -223,-176 -71,-16 -379,-244 -655,-330 -124,-38 -243,-95 -381,-117 -110,-18 -351,-64 -447,-1 132,72 332,41 454,131 -349,2 -413,-37 -715,83 -158,63 -474,140 -491,301 111,-72 446,-155 623,-167 615,-45 1346,413 1692,804 125,72 190,194 284,254 6,5 14,6 16,17l307 301c61,51 97,93 154,146 71,47 96,96 160,160l128 111c58,46 13,5 50,41 45,77 84,74 140,150l327 270c55,26 142,90 166,134l367 239c165,189 227,-7 268,388 21,205 48,405 74,616l729 0 0 -5117c-313,15 -455,-24 -740,-74 -366,-64 -660,-242 -639,-120z"/>
   <path class="fil9" d="M23664 1188c169,328 231,-81 104,976 -45,377 -79,728 -127,1115 -44,365 -78,733 -124,1111 -38,315 -66,661 -471,789l65 274c144,-20 1263,-317 1333,-368l-65 -246c-292,10 -440,-51 -482,-333 -31,-210 9,-596 32,-816l1327 -355c216,315 645,762 531,996 -61,126 -204,135 -303,227l69 247 708 -195c-1,3 -8,-12 -9,-14 -65,-100 -18,12 151,-13l358 -98c163,-42 579,-132 699,-190l-65 -263c-444,47 -584,-273 -839,-619 -204,-276 -400,-580 -619,-833 -102,-119 -37,-78 -150,-175 -56,-48 43,110 -52,-93 -25,-52 -38,-65 -75,-113l-930 -1287 -1066 276z"/>
   <path class="fil6" d="M40743 1098c-46,137 -156,326 -224,449l-2749 5616c-99,207 -360,681 -395,877 199,86 236,158 380,284l85 -77c22,-74 1261,-1592 1367,-1711l3093 -3755 0 -262 -815 990c-239,246 -554,684 -799,969 -47,55 -90,103 -133,157l-1796 2191c-23,28 -31,46 -55,76 -56,74 -612,692 -643,778l2907 -4479c49,-78 99,-131 140,-201l931 -1418c76,-111 174,-293 263,-397l0 -439 -554 -746 -216 0c34,74 290,413 366,506l212 263c34,40 138,162 123,220l-1006 1523c-40,63 -83,128 -123,193l-124 194c-74,121 -184,256 -253,379l-749 1152c-84,119 -176,255 -255,378l-1125 1722c-78,121 -284,502 -391,547 28,-139 335,-603 436,-790 188,-345 1188,-2164 1398,-2481l1610 -2851c1,-104 -40,-165 -128,-282l-522 -673 -206 0c58,204 454,583 605,793l82 103c-35,53 -58,101 -78,145l-413 737c-343,559 -880,1556 -1197,2126l-1404 2499c-36,67 -65,118 -104,186l585 -1288c243,-415 744,-1579 1047,-2143l1041 -2135c21,-128 -69,-201 -151,-296l-607 -727 -231 0c143,221 118,142 225,280 75,97 153,167 230,270 173,232 420,405 320,548z"/>
   <path class="fil10" d="M13352 11649c-1,88 157,166 330,172 -7,40 -14,78 -14,82 109,-141 16,9 265,-5 178,-10 240,25 378,-35 4,-2 12,-7 18,-9 244,357 218,312 506,552 143,120 473,340 644,424 91,58 152,79 224,160 -18,36 11,-4 -38,40 -29,25 -11,4 -39,31 50,10 22,-2 63,20 72,38 71,86 72,171l48 -104c2,103 -16,239 0,299 1,7 97,88 -31,202 86,32 51,-16 102,140l129 124c8,77 11,20 7,79 -4,70 14,4 -14,52l107 122c-58,23 25,-54 -28,13 -41,54 -4,-42 -1,25l2 150c108,1 91,4 135,33l-23 198c16,0 10,-25 61,16 68,52 52,81 49,279 -76,-64 -20,1 -69,-80 -19,-32 -11,-29 -9,-50 100,123 15,89 -58,111l-30 14c174,-1 88,-3 148,108 38,-69 -28,7 9,-65l24 -36c5,-6 14,-13 18,-19 5,-5 12,-13 20,-19l18 91c0,5 0,17 0,21 0,2 -1,9 -1,10l96 253 -111 87c-28,32 -35,42 -59,68l-569 621c-52,57 -80,104 -117,144 -22,24 -39,39 -64,70l-1399 1953c-140,221 -257,463 -370,712 -237,522 -425,1015 -532,1626l68 0c119,-601 943,-2070 1369,-2675 191,-270 387,-527 588,-784 104,-134 201,-233 300,-361l399 -444c29,-29 63,-62 93,-93l695 -677c359,-321 1024,-838 1387,-1031 -46,-262 -250,-568 -280,-842 -225,-168 -2218,-842 -2814,-1352 -156,-133 -233,-185 -359,-326 -143,-161 -175,-227 -287,-401 -43,-64 -29,-34 -33,-130l-69 2c-92,200 -138,298 -386,376 -268,84 -402,-23 -568,-113z"/>
   <path class="fil3" d="M41323 7681c57,96 107,78 113,198 8,189 -185,253 -329,162 -88,-56 -77,-109 -79,-239l-22 52c-90,282 17,57 -377,416 -422,385 -520,462 -810,877 -65,92 -112,112 -172,257 -108,260 -102,116 -132,266 88,53 653,166 829,238 583,238 1186,575 1678,961 102,80 175,168 278,218l0 -2199c-150,27 -459,228 -1141,347 -366,64 -345,43 -352,-52 -46,38 -50,69 -119,75l-267 -37c188,-23 353,-41 520,-80 667,-157 1332,-460 1359,-466l0 -1531c-204,57 -616,358 -837,503 -77,50 -40,51 -140,34z"/>
   <path class="fil6" d="M30996 16344l128 -145c75,-69 -116,55 78,-38 4,-3 12,-6 17,-9l229 -139c5,-3 10,-8 15,-12l388 -184c125,-45 55,19 110,-46 -34,-103 7,-26 -84,-73 -75,-39 9,-50 -142,-21 -88,17 -283,119 -357,157 -137,71 -217,134 -337,218 -58,40 -95,54 -162,95l-35 22c-29,18 -16,12 -53,31 -149,75 -377,161 -530,174 85,-267 861,-706 1086,-788 78,-29 130,-28 169,-92 -24,-45 -77,-87 -140,-91 -127,-9 -553,245 -677,332l-659 582c-549,546 -265,651 -978,668 89,-203 665,-841 863,-1019 159,-144 317,-292 519,-407l475 -241c90,-33 107,-14 146,-88 -171,-329 -1209,557 -1320,663 -166,159 -439,474 -478,568l-95 96c-46,51 -80,92 -123,143 -276,327 -128,290 -621,293l114 -167c51,-61 65,-94 112,-149 43,-51 73,-88 121,-145 27,-32 39,-46 61,-71l289 -369c77,-95 170,-159 262,-265 64,-74 177,-179 259,-245 194,-156 414,-305 638,-418 90,-45 318,-122 356,-171 -68,-169 -194,-96 -360,-14 -505,252 -924,582 -1283,1009 -48,57 -74,104 -126,165l-390 481c-74,87 -206,220 -260,318l-408 1c14,-121 149,-214 245,-317l791 -952c922,-911 1158,-766 1358,-928 -60,-217 -249,-77 -395,-8 -411,197 -670,427 -997,717 -232,205 -558,677 -768,921 -103,121 -206,249 -319,366 -177,186 -222,174 -516,106 34,-107 76,-106 151,-179l830 -988c181,-265 514,-574 776,-757 120,-84 245,-147 382,-227 67,-39 145,-79 209,-106 61,-25 171,-54 218,-82 -11,-261 -338,-42 -468,17 -393,181 -996,666 -1231,1034l-97 119c-391,421 -531,727 -1049,1115 -147,111 -272,212 -444,299 -82,41 -229,56 -248,156 168,53 435,-75 557,-143 83,-47 185,-140 238,-161 101,-40 199,33 322,48 -24,95 -30,71 -19,124l-74 18c-156,52 -277,178 -440,243 -71,29 -139,37 -158,108 183,87 527,-111 642,-185 265,-171 255,-293 655,-175 -41,100 -96,121 -188,194l-442 273c-112,55 -179,46 -211,153 173,21 305,-27 432,-97l364 -241c6,-5 23,-19 30,-24 20,-14 28,-17 49,-31 79,-52 68,-57 143,-119 147,-119 262,-63 456,-58 -34,96 -1,31 -46,94 -95,131 -322,290 -452,370 -158,98 -289,186 -463,255 -262,105 -12,125 124,92 252,-59 458,-228 638,-366 567,-432 214,-429 892,-472 -51,233 -412,500 -592,643l-345 233c-98,60 -344,126 -375,219 343,126 852,-354 1054,-516 93,-74 33,-26 92,-96l110 -99c356,-349 156,-393 783,-477 -59,221 -686,825 -919,1002 -153,115 -293,216 -474,295 -78,35 -221,67 -234,134 273,146 899,-331 1145,-575l92 -92c197,-205 568,-783 790,-858 346,-117 713,-187 1009,-410 4,-4 11,-8 15,-11 6,-5 22,-17 27,-21 35,-34 20,28 26,-38 -101,98 -818,279 -976,303 90,-201 281,-348 478,-451z"/>
   <path class="fil7" d="M34211 4497c-76,44 -105,47 -155,116 125,56 108,94 197,193l553 633c556,625 1310,1557 1862,2150 76,81 131,150 183,214l172 199c4,5 10,14 13,17 3,4 9,12 13,18 -101,320 -200,257 -142,655 96,103 186,227 396,221 355,-10 1379,-1124 1719,-1402l1629 -1488c92,-86 228,-224 328,-304l1149 -1042c68,-72 99,-116 172,-155l0 -335c-113,66 -680,627 -829,757l-1245 1131c-72,68 -88,61 -159,131 -116,113 -172,176 -272,256l-1955 1785 -85 77c-28,42 -347,407 -534,292 -143,-87 -50,-280 24,-456l51 -103c21,-33 15,-26 35,-48l2322 -5166c67,-154 752,-1615 768,-1716 -87,-173 -323,-413 -457,-563 -87,-99 -165,-188 -242,-287 -67,-85 -191,-207 -227,-277l-299 0c55,177 138,179 197,259l459 548c400,421 301,276 146,669 -144,363 -140,301 -216,468l-348 789c-120,307 -298,700 -450,1024l-1865 4122 -2569 -2949c-111,-134 -279,-294 -339,-433z"/>
   <path class="fil3" d="M30198 869c133,-45 143,-94 254,-97l1019 -625c62,-92 79,-55 136,-147l-2434 0c16,352 -5,322 -52,599 -36,216 -94,382 -264,297 -11,-134 73,-236 100,-416 31,-209 32,-276 22,-480l-333 0c-11,345 -29,937 -305,1075 -53,-37 -40,-38 -93,-74 67,-210 278,-506 193,-1001l-311 0c-11,308 -38,681 -171,939 -74,146 -80,95 -164,177 -30,-116 -139,-10 -30,-213 149,-278 187,-581 165,-903l-335 0c42,359 -151,1164 -427,1175 -148,-251 222,-111 236,-1175l-686 0c54,985 -359,1152 -414,1401 458,278 2373,77 3040,-193 213,-86 682,-224 854,-339z"/>
   <path class="fil11" d="M16912 771c82,44 23,-4 90,84l309 310c21,18 35,33 53,52l106 117c2,-5 10,10 15,16l34 -88c59,34 20,-8 43,50 80,-98 0,-46 107,-81l-47 246c65,55 115,117 164,164 63,60 92,67 165,148 255,280 394,381 636,634 101,105 279,292 342,328 104,-98 618,-1835 687,-2041 73,-218 172,-490 220,-710l-2688 0c3,30 8,39 12,42l31 6c5,2 38,3 46,5 -6,7 -16,15 -21,20l-5 164 -174 -65c58,215 7,138 15,207 8,73 65,44 106,148 -91,0 -53,-4 -84,-20l-44 -46 -86 110c63,24 42,23 73,61l-75 56c-30,37 -17,9 -30,83z"/>
   <path class="fil11" d="M23592 13491l-301 5c-173,238 -180,337 72,548 -8,226 -499,1231 741,1531 1222,297 1338,-1020 1297,-1074 -66,-86 -817,-264 -944,-243 -34,74 -85,230 -72,330 106,62 283,74 408,141 -102,491 -507,496 -777,332 -331,-201 -152,-638 -59,-985 24,-88 40,-148 80,-236 71,-154 69,-145 150,-194 173,-103 382,-65 541,22 227,122 170,305 276,381 86,62 432,130 513,108 226,-860 -1493,-1466 -1925,-666z"/>
   <path class="fil3" d="M37840 8247l1955 -1785c100,-80 156,-143 272,-256 71,-70 87,-63 159,-131l1245 -1131c149,-130 716,-691 829,-757l0 -1406 -3093 3755c-106,119 -1345,1637 -1367,1711z"/>
   <path class="fil3" d="M27743 10533c186,150 1722,267 2078,272 433,5 1174,-56 1547,-223 73,-33 302,-93 412,-211 -227,-67 -163,-595 -123,-796 48,-241 128,-379 198,-568 46,-126 16,-51 9,-177 53,-33 101,-6 149,-181 -208,73 -781,956 -2457,1468 -56,17 -109,27 -162,57 -16,9 -52,38 -53,38 -135,70 120,-17 -89,0 -37,4 -46,9 -81,20 -51,16 -90,31 -140,45 -224,59 -1055,275 -1288,256z"/>
   <path class="fil3" d="M42300 2519l0 -1334c-89,104 -187,286 -263,397l-931 1418c-41,70 -91,123 -140,201l-2907 4479c31,-86 587,-704 643,-778 24,-30 32,-48 55,-76l1796 -2191c43,-54 86,-102 133,-157 245,-285 560,-723 799,-969l815 -990z"/>
   <path class="fil12" d="M17622 1477l-62 145 832 837c61,57 93,91 157,158 69,73 125,122 173,172 43,45 107,118 164,156 -40,323 -241,675 110,995 4,4 11,65 30,27 3,-4 11,9 16,14 533,122 698,-217 958,-490l1191 -1342c162,-193 1863,-2051 1906,-2149l-332 0c-35,71 -125,163 -178,219l-348 393c-88,87 -100,115 -171,197l-2130 2354c-36,64 -75,101 -133,160 -33,33 -30,35 -61,68 -78,84 6,44 -99,65 -115,356 -836,449 -532,-327 -11,-36 278,-836 319,-964l288 -898c3,-7 21,-54 23,-59 30,-70 14,-33 31,-59l363 -1149 -301 0c-48,220 -147,492 -220,710 -69,206 -583,1943 -687,2041 -63,-36 -241,-223 -342,-328 -242,-253 -381,-354 -636,-634 -73,-81 -102,-88 -165,-148 -49,-47 -99,-109 -164,-164z"/>
   <path class="fil1" d="M5913 4627l-97 142c-31,66 -55,117 -83,178 -127,281 -355,901 -343,1187 428,9 1184,-198 1561,-498 294,-234 710,-787 691,-1367l-199 -111c-80,59 -129,26 -252,23 -741,-13 -1096,432 -1278,446z"/>
   <path class="fil6" d="M11677 16709c52,140 792,1332 1015,2122 90,8 46,4 104,55l51 -152c97,17 24,-3 115,36 -60,-112 -47,-19 -69,-104l-1 -20c-26,-106 -45,20 -37,-87 9,-119 51,36 56,-188l19 -192c0,-2 -2,-9 -2,-12l27 -89c129,85 94,24 96,22l24 -55c0,-2 -2,-10 -2,-13l37 -148c-124,-57 -57,8 -89,-108 71,29 109,87 133,-19 25,-114 -15,-138 37,-235 -27,-69 0,1 -36,-43 -43,-53 -23,8 -56,-72 44,-37 15,38 35,-76 115,71 14,55 164,56l44 -75 -157 -24c42,-43 128,-109 119,-155 -30,-158 -71,247 -111,-32l81 -30c90,-65 21,19 21,-35l-7 -16c-17,-83 17,20 22,-112 5,-121 -96,-109 40,-291 20,-27 11,15 37,-51 -97,-22 -33,-11 -123,-59l7 -165c173,75 -121,69 106,72l-2 -54c-1,-26 73,12 -43,-66 -3,-2 -12,-6 -17,-10 5,-4 14,-18 17,-13 3,7 22,-16 33,-24 29,-20 36,-22 58,-39 -109,-21 -22,23 -102,-82 41,-79 -44,-12 96,-68l-112 -77c-4,-3 -11,-8 -16,-13l120 -132 -53 -65c-1,-1 -7,-6 -9,-10 61,-57 59,-70 50,-164l-96 -3 -193 162c-302,299 -1062,774 -1431,953z"/>
   <path class="fil9" d="M33457 11957c153,22 350,87 492,133 96,30 416,129 499,132 59,-94 181,-462 241,-602 38,-104 130,-227 76,-317 -135,59 -104,222 -224,304 -172,119 -1004,-164 -1286,-227 33,-24 -16,0 54,-27l347 -101c343,-113 771,-297 990,-541 426,-473 269,-1080 -230,-1325 -363,-178 -855,-235 -1148,137 -366,463 97,1011 379,693 81,-92 121,-263 38,-390 -91,-139 -202,-92 -305,-200 -24,-163 172,-259 352,-275 454,-40 713,573 320,1243 -253,433 -667,611 -1128,852 -123,64 -347,109 -417,227 70,81 69,62 230,99 83,20 168,43 254,63 155,37 310,77 466,122z"/>
   <path class="fil5" d="M36907 8692c-58,-398 41,-335 142,-655 -4,-6 -10,-14 -13,-18 -3,-3 -9,-12 -13,-17l-172 -199c-52,-64 -107,-133 -183,-214 -552,-593 -1306,-1525 -1862,-2150l-553 -633c-89,-99 -72,-137 -197,-193l-444 243 403 477c81,98 125,147 206,242l2686 3117z"/>
   <path class="fil3" d="M39857 11481l667 5130c79,516 112,1007 193,1488 28,161 14,107 3,152 -1,5 -8,23 -9,20 -1,-4 -5,13 -10,18 5,6 13,6 15,16 3,9 12,11 16,14l341 224c-57,-233 -89,-637 -119,-892l-545 -4460c-32,-253 -222,-1673 -174,-1808 -113,48 -255,94 -378,98z"/>
   <path class="fil8" d="M7934 0l-1514 0c-108,402 -197,688 -130,1160 51,359 279,781 478,897l301 -492c121,-178 226,-303 343,-474 184,-270 472,-684 522,-1091z"/>
   <path class="fil5" d="M30198 869c103,166 2031,2377 2305,2702 81,96 248,318 359,388 147,-18 463,-123 552,-194l-77 6c-66,-141 -214,-259 -320,-394 -97,-122 -1773,-2070 -1960,-2231l-31 -31c-121,-174 6,-57 -115,-145l-147 -172 -6 81c0,4 -2,14 -3,17 0,3 -3,21 -4,17 0,-3 -2,12 -4,17 -102,-94 -72,-36 -32,-160 -152,42 -111,32 -263,2 -111,3 -121,52 -254,97z"/>
   <path class="fil6" d="M19773 1823c-97,113 -205,470 -281,668 -50,130 -249,561 -230,657 33,41 267,180 309,202 48,-109 129,-150 233,-294 44,-62 37,-41 79,-95 43,-105 83,-132 145,-205 33,-38 58,-63 87,-100 37,-45 33,-50 67,-90l465 -538c60,-77 76,-127 145,-198l1060 -1289c51,-70 97,-111 145,-172 66,-85 250,-290 290,-369l-228 0 -281 364c-67,72 -87,87 -148,167l-954 1159c-98,119 -160,222 -265,339l-486 599c-37,37 15,21 -68,53 19,-70 66,-140 95,-185 44,-69 51,-91 96,-167l701 -1176c30,-51 30,-39 55,-75l247 -413c134,-235 287,-437 390,-665l-228 0c-25,145 -89,163 -161,298l-1029 1739c-114,177 -94,233 -210,268 4,-168 338,-936 437,-1175 49,-119 83,-156 120,-274l350 -856 -213 0 -553 1365c-45,84 -162,371 -181,458z"/>
   <path class="fil13" d="M32989 17996c45,235 61,504 95,752 17,121 28,276 40,387 12,119 42,235 46,378 34,-29 214,-316 237,-434 23,-124 31,-36 130,-279 302,-739 225,-801 900,-1420 239,-220 607,-476 649,-518l-720 -327c-204,71 -662,497 -783,626 -130,140 -521,615 -594,835z"/>
   <path class="fil7" d="M20463 16438c47,26 43,-30 80,189 43,257 85,225 345,444 132,112 441,392 602,463 42,-570 31,-799 -155,-1302 -116,-317 -375,-740 -550,-938 -48,-32 -13,-7 -51,-42l-77 -84c-143,-149 -206,-240 -363,-375l-434 -359c-168,-134 -369,-266 -540,-357l-424 -238c-125,-67 -98,-42 -117,-30 342,205 627,452 895,758 462,527 838,1060 789,1871z"/>
   <path class="fil3" d="M41649 955l-1610 2851c-210,317 -1210,2136 -1398,2481 -101,187 -408,651 -436,790 107,-45 313,-426 391,-547l1125 -1722c79,-123 171,-259 255,-378l749 -1152c69,-123 179,-258 253,-379l124 -194c40,-65 83,-130 123,-193l1006 -1523c-53,-68 16,-22 -73,-57l-509 23z"/>
   <path class="fil14" d="M41073 18543c75,68 179,150 281,197l-433 -3551 -103 -851 -339 -2806c-34,-196 -85,-113 -244,-149 -48,135 142,1555 174,1808l545 4460c30,255 62,659 119,892z"/>
   <path class="fil6" d="M20576 9771c-53,22 -81,44 -138,84 -68,48 -96,56 -167,98 -95,58 -225,142 -348,168 -29,37 -3,14 -49,43 -15,10 -58,28 -77,35l-406 156c29,64 168,135 308,84 48,-17 102,-49 148,-69 51,-22 112,-39 172,-63 300,-121 243,-211 504,-156 33,7 56,10 89,22l100 51c-52,104 -226,155 -388,232 -120,58 -315,111 -429,189 87,37 178,102 260,83 181,-42 530,-242 708,-345 54,-31 69,-50 127,-80 361,-179 224,-162 362,-254 90,-49 78,-53 141,-117l314 -265c45,-41 93,-102 143,-148 346,-320 805,-875 1112,-1210l495 -505c39,-24 51,-19 102,-57l-29 -23c-48,-28 0,-5 -51,-27 -34,-14 -67,-22 -102,-32 -309,184 -656,662 -886,911l-407 438c-110,110 -207,226 -330,330 -90,76 -186,215 -331,329 -311,244 -422,436 -765,371l-152 -57c88,-84 270,-185 370,-255 490,-343 1307,-1306 1708,-1747 27,-29 50,-56 74,-84 13,-15 22,-26 37,-42l351 -349 -170 -72 -294 281c-142,177 -175,169 -276,304 -328,436 -1458,1585 -1830,1748z"/>
   <path class="fil3" d="M39385 11241c106,548 142,1091 230,1662 42,270 51,588 97,812l216 1661c56,518 304,2219 310,2549l-26 1c5,6 13,6 16,16 3,9 12,12 16,15l318 228 -693 -5222c-67,-589 -162,-1179 -211,-1772l-273 50z"/>
   <path class="fil3" d="M38923 11039l443 3271c71,549 154,1103 216,1656l202 1532c-3,71 13,28 -23,70 79,78 220,182 313,256 -163,-1145 -264,-2262 -431,-3379 -114,-757 -351,-2651 -383,-3387l77 -1c-57,-61 -77,-40 -173,-10 -78,25 -114,40 -205,61l-36 -69z"/>
   <path class="fil7" d="M16457 318c-7,65 9,13 -36,34 -71,107 -437,319 -594,370 -157,49 -89,67 -403,129 -735,147 -1595,-26 -2514,265l-805 319c-23,114 -34,162 88,200 -34,-119 -34,-137 108,-165l-45 137 90 27c-12,165 -48,80 15,126 165,-66 250,-124 349,-142 142,-25 390,-147 743,-199 952,-143 1813,-36 2570,-469 189,-108 292,-185 450,-315 99,-82 284,-239 343,-404 49,-79 89,-119 115,-231l-174 0c-76,111 -181,228 -300,318z"/>
   <path class="fil15" d="M27863 8140l285 -18 -421 385c-80,59 -161,97 -238,157l-206 163c-158,0 -52,14 -84,-53 -89,88 -83,82 -156,184 -54,76 -97,130 -160,209 -51,62 -266,379 -289,446 50,129 7,60 81,91l39 -200c46,11 2,2 46,32 16,10 11,17 57,36l14 -121c0,-5 1,-8 3,-11 34,84 15,85 -12,166l99 -15c98,30 0,12 64,41 90,40 80,-5 120,12 -10,88 13,17 -42,33l-68 12c4,6 10,12 13,15l100 124 47 -126c5,7 23,35 27,38 66,49 -44,2 33,10l62 -1c-60,52 -76,41 -117,106l156 56 728 -1010c21,-30 22,-34 45,-61l425 -500c50,-54 142,-150 165,-220 -123,-103 -261,-28 -460,-26 37,-82 34,-70 103,-130l400 -389c301,-374 746,-835 760,-1338 -149,26 -131,130 -202,257 -152,270 -321,555 -533,786l-421 451c-135,146 -334,289 -463,409z"/>
   <path class="fil7" d="M11571 8878l20 450 45 265 28 100c105,-173 182,-443 271,-671 92,-235 150,-482 199,-746 51,-272 96,-554 103,-845 4,-158 15,-318 11,-475 -3,-157 -31,-296 -30,-446 410,110 351,165 929,223 1256,125 1641,-218 2632,-259 163,-6 308,42 451,46l108 16 -10 -114c-148,5 -407,-92 -650,-90 -591,5 -1056,207 -2089,205 -467,-1 -928,-57 -1309,-228 -298,-134 -681,-388 -824,-689 -10,90 -17,96 15,182 73,193 276,400 448,526 93,69 148,80 220,154 -4,427 -97,908 -191,1289 -46,188 -111,404 -172,565 -57,147 -175,405 -205,542z"/>
   <path class="fil7" d="M11948 0l-410 0c-158,352 -790,745 -1106,937 -638,389 -2106,679 -2829,1265 -607,492 -656,1234 -323,1360 -249,-662 282,-1072 654,-1319 458,-304 894,-415 1490,-596 713,-218 1223,-381 1810,-779 102,-69 215,-176 287,-242 162,-148 337,-364 427,-626z"/>
   <path class="fil2" d="M31799 14641l43 140c10,66 4,89 21,159 122,65 489,215 617,238l-365 -2905c-112,21 -438,83 -503,157 -115,158 232,1842 187,2211z"/>
   <path class="fil7" d="M8295 0l-361 0c-50,407 -338,821 -522,1091 -117,171 -222,296 -343,474l-301 492c-199,-116 -427,-538 -478,-897 -67,-472 22,-758 130,-1160l-318 0c-144,589 -208,1329 204,1831 217,265 325,268 409,356 -17,106 -58,168 -78,293 -19,123 -13,247 0,366 21,199 115,371 292,457 -88,-287 -248,-410 -20,-950 116,-274 323,-548 490,-749 298,-360 838,-943 896,-1604z"/>
   <path class="fil11" d="M19042 3981c-5,-5 -13,-18 -16,-14 -19,38 -26,-23 -30,-27 -351,-320 -150,-672 -110,-995 -57,-38 -121,-111 -164,-156 -48,-50 -104,-99 -173,-172 -64,-67 -96,-101 -157,-158l-832 -837c-50,50 -145,220 -200,292 -76,99 -160,186 -228,273 82,106 182,182 268,290 -37,107 -106,208 9,330 121,128 231,46 359,11l604 609c117,117 474,485 670,554z"/>
   <path class="fil3" d="M38519 10962l204 1590c41,269 62,498 101,768l294 2313c24,254 62,508 101,772 16,115 37,269 52,386 11,90 68,284 2,354 53,90 -9,16 76,81 41,31 26,9 78,52 76,63 55,76 152,124 2,-218 -369,-2935 -407,-3239 -70,-557 -143,-1068 -212,-1616 -45,-366 -207,-1319 -174,-1626 -113,28 -164,60 -267,41z"/>
   <path class="fil4" d="M8751 10032c-131,-10 -265,-10 -396,10 -102,16 -238,31 -325,49 -144,30 -400,141 -574,179 -125,152 -243,81 -242,263l0 22c-20,125 -259,125 -437,203l214 752c38,-31 24,-8 53,-66 4,-7 20,-57 21,-64 38,-193 -52,-286 -117,-392l2441 -735c262,-75 555,-176 824,-239 21,-67 31,-130 54,-214 -30,-94 40,-38 -45,-73l-1082 333c-168,37 -219,-25 -389,-28z"/>
   <path class="fil7" d="M17485 1350l-89 124c-53,123 -363,453 -495,480 -52,67 7,18 -92,69 -840,434 -2316,24 -4053,413 -192,43 -370,116 -517,134 -3,269 68,10 71,261 126,-53 26,48 84,-124 69,125 16,92 111,112 177,-67 1148,-211 1377,-231 944,-85 2156,38 2904,-376 281,-155 272,-194 440,-380 117,-129 279,-325 336,-520 -23,-58 16,-16 -43,-50l-34 88z"/>
   <path class="fil14" d="M38282 10726c110,1013 270,2051 385,3090 115,1053 285,2110 383,3153 52,66 154,126 223,176 66,-70 9,-264 -2,-354 -15,-117 -36,-271 -52,-386 -39,-264 -77,-518 -101,-772l-294 -2313c-39,-270 -60,-499 -101,-768l-204 -1590c-29,-166 -43,-293 -237,-236z"/>
   <path class="fil3" d="M40957 1023l-1041 2135c-303,564 -804,1728 -1047,2143l-585 1288c39,-68 68,-119 104,-186l1404 -2499c317,-570 854,-1567 1197,-2126l413 -737c-5,-82 17,-37 -77,-55 -12,-2 -117,3 -136,5 -102,7 -148,19 -232,32z"/>
   <path class="fil6" d="M8275 11078c-11,20 -40,-20 9,68l28 36c-103,-4 -113,10 -169,51 -123,-71 113,75 -44,-43 -60,-46 -97,-19 -58,115 -128,-61 -122,28 -248,128 -175,138 -123,154 -109,255 -94,-67 12,-16 -93,-62 7,173 47,114 -32,228 -3,4 -9,11 -13,16 158,31 25,95 156,160 -53,48 -9,24 -97,38 -2,0 -8,-1 -12,0l26 185c10,-5 13,-16 15,-17 56,-32 -17,-28 41,-10 29,59 43,0 2,92 4,1 74,8 75,8 117,30 40,13 71,30 5,3 14,12 18,14 1,1 5,4 6,5 49,22 65,-21 130,48l86 57c57,-85 -9,-29 80,-83l26 84c59,-131 20,-60 118,-171 4,-4 10,-12 14,-17 113,29 19,-36 99,59 -8,-101 30,-40 -78,-89 77,-80 75,35 108,-162 1,-3 1,-13 4,-19 88,38 88,-40 31,118 56,-48 19,-16 60,-89 35,36 99,-68 26,108l42 -19c109,-43 -21,47 45,-15 45,3 -5,27 -24,-70l108 -77c6,-4 32,-19 40,-23l-81 -47c-6,-5 -15,-13 -21,-21 41,-29 32,-33 48,-50 3,-4 9,-10 12,-14 4,-5 9,-11 13,-15 92,-100 50,-74 167,-79l-117 -162c-6,-34 -7,-50 -17,-86l111 -35c-140,-35 -75,60 -83,-97 5,-1 13,-7 14,-2l42 2c0,0 -83,-84 -33,-245 -48,-5 -82,83 -76,-94 -76,128 -70,78 -48,-26 -100,19 -117,-8 -169,5 -41,11 -77,65 -148,70 -103,8 -35,18 -101,-41z"/>
   <path class="fil6" d="M39658 11191c49,593 144,1183 211,1772l693 5222c62,47 68,60 139,104 5,-5 9,-22 10,-18 1,3 8,-15 9,-20 11,-45 25,9 -3,-152 -81,-481 -114,-972 -193,-1488l-667 -5130 -65 -316 -134 26z"/>
   <path class="fil16" d="M30452 772c152,30 111,40 263,-2 -40,124 -70,66 32,160 2,-5 4,-20 4,-17 1,4 4,-14 4,-17 1,-3 3,-13 3,-17l6 -81 147 172c121,88 -6,-29 115,145l31 31c187,161 1863,2109 1960,2231 106,135 254,253 320,394l77 -6 106 -43c-456,-497 -1063,-1265 -1478,-1693l-858 -1012c52,-40 45,-66 88,-124l144 33c142,27 -69,24 31,0 216,-51 20,-81 252,4 130,-60 -17,-50 156,-59 -38,-92 13,-25 -78,-76 133,-24 132,-15 78,-110 115,43 -9,6 110,81 -21,-88 -178,-272 -240,-345 -39,-45 -237,-243 -254,-274l-1019 625z"/>
   <path class="fil2" d="M32334 19129l157 1371 635 0c-24,-378 -107,-785 -149,-1140 -17,-148 -118,-1018 -158,-1099l-274 393c-268,359 -219,240 -211,475z"/>
   <path class="fil3" d="M19883 2961c-16,60 -29,47 -11,117 33,129 4,37 66,85l2130 -2354c71,-82 83,-110 171,-197l348 -393c53,-56 143,-148 178,-219l-478 0c-40,79 -224,284 -290,369 -48,61 -94,102 -145,172l-1060 1289c-69,71 -85,121 -145,198l-465 538c-34,40 -30,45 -67,90 -29,37 -54,62 -87,100 -62,73 -102,100 -145,205z"/>
   <path class="fil6" d="M39579 17402c30,74 94,118 182,166 36,-42 20,1 23,-70l-202 -1532c-62,-553 -145,-1107 -216,-1656l-443 -3271c-18,-122 1,-160 -137,-118 -33,307 129,1260 174,1626 69,548 142,1059 212,1616 38,304 409,3021 407,3239z"/>
   <path class="fil3" d="M40421 1127c-16,101 -701,1562 -768,1716l-2322 5166 44 31c35,-196 296,-670 395,-877l2749 -5616c68,-123 178,-312 224,-449 -54,-37 -83,-25 -106,-24l-204 46c-1,-4 -8,5 -12,7z"/>
   <path class="fil6" d="M40074 17824c58,47 71,77 138,102l26 -1c-6,-330 -254,-2031 -310,-2549l-216 -1661c-46,-224 -55,-542 -97,-812 -88,-571 -124,-1114 -230,-1662l-48 -184 -77 1c32,736 269,2630 383,3387 167,1117 268,2234 431,3379z"/>
   <path class="fil7" d="M19460 9442l-43 -22c-84,-6 -128,-16 -208,-31l-127 -27c-57,-19 -35,-12 -58,-25l-256 -48c-214,-18 -362,-55 -576,-76 -224,-21 -383,-35 -627,-25 -536,37 -1033,151 -1477,418 -48,28 -58,41 -92,67l-92 66c-72,54 -109,83 -139,161 181,15 569,-301 1178,-365 511,-53 925,-101 1452,-40 941,110 1999,434 2319,-472 -37,27 -108,173 -184,240 -95,84 -161,138 -283,167 -355,84 -441,19 -787,12z"/>
   <path class="fil7" d="M14279 11039c39,136 49,196 27,347l69 -2c4,96 -10,66 33,130 52,-73 150,-149 210,-212 81,-86 93,-146 161,-237 44,25 5,-1 45,35 6,5 22,21 28,27l183 211c195,197 319,307 544,461l76 54c41,29 40,28 80,52l476 262c136,71 182,61 322,123l353 81c58,14 364,75 425,40 -373,-148 -451,-18 -1318,-525 -373,-218 -776,-535 -1014,-808 -95,-108 -143,-127 -77,-310 193,-537 169,-1415 -75,-1963 -60,-136 -234,-476 -383,-506 255,364 436,883 400,1452 -30,470 -135,895 -448,1227 -71,74 -55,61 -117,61z"/>
   <path class="fil9" d="M13352 11649c166,90 300,197 568,113 248,-78 294,-176 386,-376 22,-151 12,-211 -27,-347 -88,-326 -597,-459 -875,-262 -108,76 -212,220 -232,398 -25,229 89,356 180,474z"/>
   <path class="fil10" d="M14410 8244l-163 -150c-361,-2 -862,413 -992,850 -189,633 314,823 -54,1366 -39,58 -73,83 -104,169 256,-28 500,-192 516,-442 26,-386 -247,-334 -203,-713 109,-72 177,-146 336,-133 407,36 428,456 185,844 -21,33 -28,39 -46,74 146,-72 710,-661 131,-1045 -178,-119 -344,-65 -496,-40 116,-302 471,-577 773,-680 152,-53 105,-2 117,-100z"/>
   <path class="fil8" d="M6380 10668c64,118 92,311 143,449l126 411c45,147 115,332 129,473 47,85 101,220 102,348 52,51 77,53 166,28 106,-29 149,-30 168,-121l-223 -746 -214 -752c-85,-178 -304,-1137 -406,-1239 -121,-8 -190,32 -280,80 -14,181 255,827 289,1069z"/>
   <path class="fil7" d="M40921 15189c-21,-122 273,56 639,120 285,50 427,89 740,74l0 -508c-62,-24 -125,-26 -204,-49 -81,-23 -133,-40 -203,-55l-526 -167c-6,-3 -13,-6 -18,-8 -6,-3 -13,-6 -19,-8 -5,-3 -12,-6 -18,-9 -58,-26 -106,-50 -161,-74l-258 -138c-41,-24 39,-12 -75,-29l103 851z"/>
   <path class="fil7" d="M16346 6402c60,17 87,14 146,59 4,3 31,28 40,38 44,50 26,33 49,70 95,70 152,117 238,198 87,82 155,182 278,231 -114,-344 -647,-713 -982,-848 -1012,-409 -2687,17 -3716,-775 -329,-253 -261,-280 -447,-476l45 124c218,480 117,182 282,417 30,43 56,65 92,96 372,315 848,438 1353,523 610,103 2162,19 2622,343z"/>
   <path class="fil7" d="M18779 13809c19,-12 -8,-37 117,30l424 238c171,91 372,223 540,357l434 359c157,135 220,226 363,375l77 84c38,35 3,10 51,42 -60,-163 -459,-621 -579,-731 -1204,-1103 -1886,-1303 -3521,-1756 -120,-33 -123,-4 -199,-25l-325 -113c-212,-70 -419,-217 -539,-260 83,225 1350,629 1562,714 277,110 569,194 827,310l768 376z"/>
   <path class="fil3" d="M22059 0l-618 0c-103,228 -256,430 -390,665l-247 413c-25,36 -25,24 -55,75l-701 1176c-45,76 -52,98 -96,167 -29,45 -76,115 -95,185 83,-32 31,-16 68,-53l486 -599c105,-117 167,-220 265,-339l954 -1159c61,-80 81,-95 148,-167l281 -364z"/>
   <path class="fil6" d="M6000 11535c-56,83 -70,176 -136,269l-314 477c-49,79 -110,164 -167,249 20,132 8,31 -2,98 44,-24 -9,22 34,-38 2,-3 7,-10 9,-14 68,-98 40,-108 225,-127 -2,74 -22,160 -18,178 83,-23 -19,25 45,-39l61 -62c145,91 13,75 106,102 41,-105 -67,-85 42,-201 7,6 23,22 27,26 2,2 10,10 13,13l56 44c42,16 17,-68 73,71 97,-153 50,-61 118,-25 -68,-95 6,-66 14,-80 51,27 30,19 86,21l71 -15c75,-35 114,-92 161,-133 63,32 114,63 185,73 11,-28 -18,62 4,-31l22 -64c85,21 73,108 65,43 167,31 43,12 100,-21 -1,-128 -55,-263 -102,-348 -66,5 -53,51 -53,51 -1,-4 -2,10 -4,15l-109 -161c-13,-20 -10,-8 -23,-55l-97 44 -77 -166c-3,-4 -9,-9 -13,-13 -69,-86 -46,-13 -54,-100 36,68 -14,60 -60,94l-22 -148c-51,72 -23,49 -120,75 -25,-115 5,14 -37,-103 -20,-56 -1,-31 -28,-84l-37 54c-41,43 -2,16 -44,31z"/>
   <path class="fil6" d="M16775 8695c80,87 101,99 230,61 195,-58 284,-78 472,-168 215,-104 374,-145 636,-337 83,-60 173,-103 257,-167 172,-129 542,-406 675,-566 214,-257 696,-696 1004,-1078 120,-147 282,-326 400,-441l-116 -108c-77,30 -659,684 -773,824 -115,142 -270,279 -387,404 -130,140 -259,265 -393,400 -322,323 -1011,769 -1445,933 -111,42 -175,72 -286,114 -70,26 -202,83 -274,129z"/>
   <path class="fil7" d="M9945 5244c176,71 268,228 418,329 111,-155 120,-661 102,-883 -47,-574 -425,-1461 -953,-1579 -112,-25 -337,-66 -436,-28 90,35 203,21 316,73 267,124 446,368 556,657 227,594 45,1031 -3,1431z"/>
   <path class="fil6" d="M17209 9037c165,87 308,18 446,-50l409 -159 762 -475c264,-184 259,-226 459,-384 114,-90 122,-118 200,-196 368,-368 654,-666 987,-1069 117,-142 277,-292 400,-433 -93,-37 -100,-50 -166,-93 -110,133 -275,275 -378,408 -186,242 -209,238 -366,423 -66,77 -124,143 -189,209 -28,28 -66,70 -89,94 -271,274 -632,672 -931,866 -178,114 -493,365 -730,460l-773 335c-45,45 -21,1 -41,64z"/>
   <path class="fil8" d="M6794 9377c86,-9 394,-200 530,-260 711,-311 1231,-365 2059,-402 -48,-116 -609,-212 -720,-225 -308,-36 -620,-4 -901,67 -346,87 -711,262 -934,516 -118,134 -117,171 -34,304z"/>
   <path class="fil8" d="M23975 3313c275,-62 788,-182 1033,-275 -46,-111 -348,-490 -443,-618l-460 -626c-48,113 -127,1291 -130,1519z"/>
   <path class="fil7" d="M18148 14435c129,13 134,20 210,99l612 708c114,119 338,424 492,517 -45,-415 -378,-939 -572,-1202 -168,-229 -629,-774 -951,-853 42,-24 2,-30 83,-13 -49,-80 -54,-79 -154,-98 30,274 234,580 280,842z"/>
   <path class="fil8" d="M9132 14121c-120,2 -757,229 -921,281 -232,74 -719,233 -941,248l105 400c512,-41 2035,-598 2027,-1022 -80,-3 -193,59 -270,93z"/>
   <path class="fil6" d="M25788 16985c332,163 1061,-465 1312,-777l498 -583c286,-334 276,-405 721,-787 230,-197 445,-330 721,-468 89,-44 213,-75 284,-105 -43,-255 -286,-74 -517,33 -1064,492 -1535,1786 -2519,2390 -76,47 -154,104 -247,152 -102,54 -225,59 -253,145z"/>
   <path class="fil6" d="M17870 9143c76,25 83,17 159,25 91,9 103,18 165,23 228,17 610,-259 778,-375 84,-57 159,-96 225,-145 66,-48 151,-89 231,-163 75,-69 134,-115 194,-178 136,-143 142,-104 213,-180l1478 -1619c-86,-27 -98,-46 -163,-74 -324,280 -647,765 -1078,1165l-374 391c-324,348 -875,723 -1318,927 -82,38 -453,235 -510,203z"/>
   <path class="fil6" d="M25401 16732c248,164 872,-379 1027,-510l257 -269c210,-219 594,-733 815,-982 309,-348 703,-660 1128,-852 91,-41 191,-64 273,-101 6,-265 -375,-29 -488,21 -212,93 -327,197 -504,314 -424,279 -951,1046 -1341,1481 -71,78 -139,148 -206,217 -201,209 -567,460 -848,579 -91,39 -83,14 -113,102z"/>
   <path class="fil10" d="M9463 7502c63,-88 -102,-110 -51,-410 1,-4 3,-12 4,-16l3 -34c1,-4 1,-12 1,-17 18,-163 266,-485 337,-530 107,-67 -38,64 27,-14 48,-57 -34,80 12,-44 31,-81 33,-53 92,-113 183,-182 352,-467 469,-720l6 -31c-150,-101 -242,-258 -418,-329 -128,377 -335,722 -500,1061 -189,390 -272,867 18,1197z"/>
   <path class="fil7" d="M14066 5063c304,693 2707,703 3399,-484 91,-156 207,-250 210,-481 -122,444 -853,962 -1409,1100 -360,90 -766,139 -1171,104 -180,-16 -372,-49 -544,-96 -148,-40 -359,-149 -485,-143z"/>
   <path class="fil6" d="M18768 9289l256 48c194,-97 659,-391 796,-518 545,-502 788,-721 1310,-1329 107,-124 187,-221 306,-354 52,-58 89,-95 152,-164 57,-62 119,-97 169,-174 -157,-127 -176,-100 -389,139l-652 746c-108,125 -236,228 -353,358 -189,208 -490,509 -717,685 -87,68 -107,60 -196,146 -71,69 -502,298 -614,365 -69,41 -23,8 -68,52z"/>
   <path class="fil6" d="M6991 11510l223 746c107,52 13,38 136,28 109,-179 -222,-651 -168,-858 56,-219 25,-157 39,-359 338,-173 1328,-350 1839,-580l335 -79c252,-69 504,-143 792,-218l26 -176c-269,63 -562,164 -824,239l-2441 735c65,106 155,199 117,392 -1,7 -17,57 -21,64 -29,58 -15,35 -53,66z"/>
   <path class="fil3" d="M21213 0l-493 0 -350 856c-37,118 -71,155 -120,274 -99,239 -433,1007 -437,1175 116,-35 96,-91 210,-268l1029 -1739c72,-135 136,-153 161,-298z"/>
   <path class="fil14" d="M39478 20500l259 0 -323 -2573c-94,-60 -159,-182 -284,-254 56,230 54,468 89,708 33,218 56,463 91,696 68,464 85,955 168,1423z"/>
   <path class="fil1" d="M21352 10049c-138,92 -1,75 -362,254 122,-22 433,20 609,17 707,-11 1258,-159 1885,-383 347,-125 513,-231 805,-406l35 -19c5,-3 12,-6 18,-9 297,-153 406,-307 549,-423l-729 380c-604,323 -1567,593 -2272,622l-397 23c-145,-11 -119,-29 -141,-56z"/>
   <path class="fil10" d="M9897 17373c501,-112 1740,-663 1780,-664 369,-179 1129,-654 1431,-953l193 -162c46,-118 1,-13 121,-74 -107,-66 -246,77 -429,196 -1086,705 -1367,830 -2582,1302 -94,36 -202,64 -277,95l-203 134c-125,148 95,-45 -88,68 -74,46 -15,-25 -71,64l125 -6z"/>
   <path class="fil7" d="M22793 18620c-32,215 -119,403 -167,597 177,-98 194,-341 321,-433 -51,-225 511,-921 114,-2691 -31,-136 -79,-275 -126,-400 -27,-70 -42,-125 -71,-193 -11,-24 -31,-65 -47,-88 -46,-61 -10,-23 -65,-65 5,144 50,275 81,421 72,339 160,891 169,1227 9,349 -59,1423 -209,1625z"/>
   <path class="fil10" d="M11203 9701c-146,443 -625,1653 -157,1978 -5,-267 -44,-270 27,-564 43,-176 95,-316 166,-469 82,-175 322,-745 419,-846l6 -107 -28 -100 -433 108z"/>
   <path class="fil10" d="M5739 6976l-6 83c89,6 101,-5 166,54l68 90 110 -17c30,-37 73,-10 306,-63 706,-161 1722,-354 2294,-682l0 -7 -3 -217c-108,44 -189,118 -308,170 -446,195 -536,215 -1050,326l-1577 263z"/>
   <path class="fil3" d="M39737 20500l247 0c-1,-176 -52,-425 -76,-603 -23,-180 -40,-374 -66,-558l-125 -976c-10,-158 -9,-88 20,-118l-307 -301c-2,-11 -10,-12 -16,-17l323 2573z"/>
   <path class="fil1" d="M22411 9270c22,-7 134,-39 171,-38l141 9c282,4 997,-234 1255,-390 189,-115 1157,-735 1200,-1069 68,34 -15,-4 -16,-7 -32,-65 -39,128 -24,-107 3,-2 9,-3 10,0 3,13 88,16 103,-215 7,77 -690,740 -847,851 -530,372 -500,361 -1124,649 -134,63 -273,108 -421,162 -90,32 -400,119 -448,155z"/>
   <path class="fil7" d="M19690 15995c308,-20 399,39 593,151 -52,-222 -123,-393 -215,-576 -87,-174 -211,-325 -317,-474 -118,-165 -590,-706 -795,-784 114,150 161,201 264,363 91,143 147,234 222,385 124,250 243,626 248,935z"/>
   <path class="fil1" d="M40957 1023c84,-13 130,-25 232,-32 19,-2 124,-7 136,-5 94,18 72,-27 77,55 20,-44 43,-92 78,-145l-82 -103c-151,-210 -547,-589 -605,-793l-594 0 607 727c82,95 172,168 151,296z"/>
   <path class="fil7" d="M36736 11098c129,12 327,-77 491,-97 -93,-23 -320,-233 -445,-311 -80,-48 -142,-75 -247,-120 -300,-130 -571,-181 -923,-161 -197,11 -204,36 -330,103 -112,60 -78,14 -111,149 393,-38 511,-122 921,34 397,150 407,275 644,403z"/>
   <path class="fil1" d="M40421 1127c4,-2 11,-11 12,-7l204 -46c23,-1 52,-13 106,24 100,-143 -147,-316 -320,-548 -77,-103 -155,-173 -230,-270 -107,-138 -82,-59 -225,-280l-473 0c36,70 160,192 227,277 77,99 155,188 242,287 134,150 370,390 457,563z"/>
   <path class="fil17" d="M4398 3399l428 -127c-85,-58 -310,-47 -592,-192 -162,-83 -348,-212 -442,-324 -115,-139 -224,-284 -269,-495 -49,-228 -43,-447 60,-617 -83,9 -154,110 -189,181 -45,93 -58,220 -62,335 -15,436 234,759 529,1001 102,85 364,244 537,238z"/>
   <path class="fil1" d="M41649 955l509 -23c89,35 20,-11 73,57 15,-58 -89,-180 -123,-220l-212 -263c-76,-93 -332,-432 -366,-506l-531 0 522 673c88,117 129,178 128,282z"/>
   <path class="fil3" d="M40171 20500l224 0c-1,-317 -116,-975 -157,-1369 -9,-84 -16,-145 -30,-238 -32,-224 -31,-164 21,-190 -37,-36 8,5 -50,-41l-128 -111c-64,-64 -89,-113 -160,-160l280 2109z"/>
   <path class="fil10" d="M6913 14485c59,88 222,159 357,165 222,-15 709,-174 941,-248 164,-52 801,-279 921,-281 -45,-96 37,-54 -135,-46l-1626 209c-111,27 -144,57 -238,101 -215,101 -193,25 -220,100z"/>
   <path class="fil7" d="M19462 15759c18,51 4,21 37,64 18,24 39,42 63,68 53,57 46,74 128,104 -5,-309 -124,-685 -248,-935 -75,-151 -131,-242 -222,-385 -103,-162 -150,-213 -264,-363 -75,-126 -741,-576 -934,-621 -81,-17 -41,-11 -83,13 322,79 783,624 951,853 194,263 527,787 572,1202z"/>
   <path class="fil14" d="M32480 15178l150 54c24,-72 -256,-2178 -309,-2607l-26 -278c-13,-54 -9,-37 -30,-67l-150 -7 365 2905z"/>
   <path class="fil11" d="M16616 1662c3,4 8,6 9,13 2,7 8,11 9,13 64,87 179,214 267,266 132,-27 442,-357 495,-480l-231 -216c-86,-78 -112,-179 -232,-239l-102 -77c-7,176 -6,70 -202,217 112,48 48,14 79,132 -169,-10 -133,-2 -203,-105 36,56 72,30 94,119 20,80 37,-98 -1,59l-48 79c46,83 26,-13 118,6 -41,209 -56,3 -52,213z"/>
   <path class="fil3" d="M19774 1149l-16 194c74,23 -18,60 42,-9 28,-32 13,-34 11,-48 7,120 -48,146 -69,210 -27,82 15,42 15,130 1,139 -20,-54 -38,149 10,11 45,39 54,48 19,-87 136,-374 181,-458l553 -1365 -370 0 -363 1149z"/>
   <path class="fil15" d="M26210 7486c80,44 145,44 237,38 370,-195 1079,-1043 1273,-1317l168 -279c56,-103 96,-200 130,-311l-97 -60c-161,172 -191,421 -381,626 -191,205 -294,374 -592,675l-738 628z"/>
   <path class="fil10" d="M14194 13193c56,63 41,92 44,168 5,156 -41,94 48,121 44,83 8,-159 7,-175l49 0c47,-1013 -1108,-1117 -1474,-2238 -168,-515 -113,-990 -179,-1077 5,397 -54,699 64,1093 204,685 578,879 1038,1335 201,199 350,438 403,773z"/>
   <path class="fil6" d="M16168 14861c73,-22 158,12 58,-111 -2,21 -10,18 9,50 49,81 -7,16 69,80 3,-198 19,-227 -49,-279 -51,-41 -45,-16 -61,-16l23 -198c-44,-29 -27,-32 -135,-33l-2 -150c-3,-67 -40,29 1,-25 53,-67 -30,10 28,-13l-107 -122c28,-48 10,18 14,-52 4,-59 1,-2 -7,-79l-129 -124c-51,-156 -16,-108 -102,-140 128,-114 32,-195 31,-202 -16,-60 2,-196 0,-299l-48 104c-1,-85 0,-133 -72,-171 -41,-22 -13,-10 -63,-20 28,-27 10,-6 39,-31 49,-44 20,-4 38,-40 -72,-81 -133,-102 -224,-160 -28,70 -2,27 -26,97 -19,57 -29,75 -59,116 83,40 -118,-35 50,-14l157 119c-4,3 -13,-2 -15,3 -22,81 -6,-4 -28,8 -39,20 -43,-24 -19,26 23,47 58,40 109,67 -96,97 -38,176 -5,292 -94,58 -36,-44 -51,35 0,5 17,59 20,84 50,-33 -11,-42 56,-21 6,2 31,22 34,26l14 25c1,2 4,10 5,12 74,139 43,97 -6,141l82 14c-66,105 -39,19 -49,124 -115,-44 4,-41 -85,-59l34 216c18,42 29,-6 20,103 15,-38 49,-16 130,-6 5,1 14,2 19,3 128,15 45,2 56,40l1 138c7,69 -17,41 -29,142 26,-58 2,-50 74,-76 44,37 14,-6 33,51 45,23 0,-47 14,18 0,1 4,9 4,11 0,2 1,10 1,13 0,3 -2,12 -2,15l-8 37c-1,4 -5,13 -5,20 59,35 72,19 157,14 -30,78 -18,109 6,197z"/>
   <path class="fil7" d="M32685 0l-1073 0c-1,148 458,585 546,672 140,-73 367,-380 444,-456 83,-80 89,-72 83,-216z"/>
   <path class="fil18" d="M12361 1760c-63,-46 -27,39 -15,-126l-90 -27 45 -137c-142,28 -142,46 -108,165 -122,-38 -111,-86 -88,-200 -95,7 -151,47 -266,136l-418 379c-12,18 -8,21 -30,50l-107 102c-17,16 -56,57 -58,59l40 19c0,0 68,1 59,117 -62,49 -56,14 -135,40l118 37c5,3 12,7 16,10l44 32c64,-150 343,-241 457,-355 121,-120 227,-138 393,-202 102,-40 111,-63 143,-99z"/>
   <path class="fil6" d="M21032 8997c148,-72 685,-688 839,-848 189,-197 344,-424 582,-659 86,-85 149,-113 206,-223l-159 -58c-292,199 -503,546 -790,834l-571 616c-131,146 -69,97 -107,338z"/>
   <path class="fil3" d="M40576 20500l282 0c-16,-383 -192,-1017 -162,-1377l-327 -270 207 1647z"/>
   <path class="fil14" d="M32819 18261c40,81 141,951 158,1099 42,355 125,762 149,1140l158 0 -114 -987c-4,-143 -34,-259 -46,-378 -12,-111 -23,-266 -40,-387 -34,-248 -50,-517 -95,-752 -34,42 -149,207 -170,265z"/>
   <path class="fil1" d="M6000 11535c42,-15 3,12 44,-31l37 -54c27,53 8,28 28,84 42,117 12,-12 37,103 97,-26 69,-3 120,-75l22 148c46,-34 96,-26 60,-94 8,87 -15,14 54,100 4,4 10,9 13,13l77 166 97 -44c13,47 10,35 23,55l109 161c2,-5 3,-19 4,-15 0,0 -13,-46 53,-51 -14,-141 -84,-326 -129,-473l-126 -411c-37,15 -129,-107 -164,-143 -65,-65 -120,-92 -193,-144 15,334 -62,434 -166,705z"/>
   <path class="fil7" d="M8674 6217l3 217c629,-376 1173,-1724 735,-2239l-21 117c31,468 85,503 -134,1067 -123,319 -290,507 -496,744 -43,49 -48,38 -87,94z"/>
   <path class="fil14" d="M15370 421c2,60 175,206 281,324 7,-1 17,-12 19,-6l157 -17c157,-51 523,-263 594,-370l-28 -65c-9,5 -19,2 -23,12 -4,9 -17,8 -22,10 -31,13 -20,10 -62,24l-63 -144c-78,-10 -4,-9 -54,36 7,96 -9,19 53,118l-95 89 -224 -160c-91,-29 -3,-25 -89,22 27,-58 24,-41 58,-110l-59 -62c-43,-44 -6,-15 -52,-49l44 -73 -445 0 83 36c57,28 35,7 82,60 92,105 10,92 100,141 -153,-7 108,4 -46,-20 -103,-16 -82,6 -101,20 197,150 137,64 202,106 -38,27 -25,29 -82,43 -74,-59 -17,-15 -71,-106 -108,51 -99,56 -135,111l-22 30z"/>
   <path class="fil6" d="M39984 20500l187 0 -280 -2109c-57,-53 -93,-95 -154,-146 -29,30 -30,-40 -20,118l125 976c26,184 43,378 66,558 24,178 75,427 76,603z"/>
   <path class="fil15" d="M27043 7647l30 -15c121,-8 585,-475 671,-585l546 -695 -111 -85c156,-26 163,-43 229,-163 43,-79 49,-190 96,-254 -70,-24 -82,-26 -137,-60l-180 375c-101,196 -487,689 -655,856l-133 129c-124,126 -387,394 -520,438l164 59z"/>
   <path class="fil11" d="M22184 2050c-104,32 -156,37 -211,142 -37,70 -64,176 -40,270 41,160 223,304 416,239 423,-144 254,-781 -165,-651z"/>
   <path class="fil11" d="M26701 19015c-443,137 -210,779 188,643 404,-138 273,-787 -188,-643z"/>
   <path class="fil6" d="M20763 8387l63 82c110,42 26,33 190,-144 58,-63 115,-109 176,-168 222,-216 473,-555 666,-758 113,-119 236,-247 339,-364l-146 -81c-151,89 -530,561 -650,700 -149,171 -617,629 -638,733z"/>
   <path class="fil15" d="M27598 7688l313 -16c28,-107 64,-88 205,-228 19,-19 33,-32 54,-51l228 -277c114,-104 125,-70 92,-218 128,23 77,30 267,-236l28 -45c58,-139 -58,28 81,-161l169 -377 -136 -61c-152,409 -405,732 -665,1042l-636 628z"/>
   <path class="fil18" d="M12505 2819c-95,-20 -42,13 -111,-112 -58,172 42,71 -84,124 -3,-251 -74,8 -71,-261 -145,14 -262,86 -385,154 -222,123 -90,7 -321,208 -126,108 -30,-40 -217,175 -2,2 -8,8 -10,10 -4,5 -15,14 -18,18 0,0 -29,47 -38,64l-53 84c-27,43 -61,71 45,92 100,20 60,-9 93,-32 168,-113 192,-167 438,-275 7,-3 72,-30 76,-32l630 -202c8,-4 18,-9 26,-15z"/>
   <path class="fil9" d="M28476 11513c-406,253 -15,738 314,582 357,-170 53,-810 -314,-582z"/>
   <path class="fil7" d="M22068 18020c68,39 84,59 154,109 -25,-184 144,-716 -16,-1473 -105,-497 -236,-823 -430,-1207 -50,137 43,144 69,256 157,665 248,837 272,1607 4,123 2,245 -3,369 -7,174 16,254 -46,339z"/>
   <path class="fil3" d="M19460 9442c346,7 432,72 787,-12 122,-29 188,-83 283,-167 76,-67 147,-213 184,-240 18,-76 34,-154 41,-226 4,-40 8,-88 3,-128 -13,-112 10,-45 -35,-102 -17,162 -164,201 -253,293l-278 250c-374,269 -405,320 -732,332z"/>
   <path class="fil3" d="M41028 20500l272 0 -92 -785c-37,-249 -50,-185 21,-219l-367 -239 166 1243z"/>
   <path class="fil11" d="M16616 1662c-4,-210 11,-4 52,-213 -92,-19 -72,77 -118,-6l48 -79c38,-157 21,21 1,-59 -22,-89 -58,-63 -94,-119 70,103 34,95 203,105 -31,-118 33,-84 -79,-132 196,-147 195,-41 202,-217 -12,-14 -38,-40 -42,-46l-21 -34c-3,-5 -6,-12 -9,-17 -4,-5 -7,-12 -11,-17l-26 -30c-95,-99 93,54 -35,-21 45,-11 0,6 20,-50 -175,16 -107,43 -364,248 0,68 8,67 19,122 -75,-75 -7,-31 -103,-59 -34,35 -19,0 -45,52 -16,35 -7,18 -14,58 -181,24 -11,-76 -117,-15l533 529z"/>
   <path class="fil7" d="M12978 8426c111,-66 170,-213 302,-302 -33,-374 -249,-1089 -553,-1209 -1,159 331,560 251,1511z"/>
   <path class="fil1" d="M19113 3129l149 19c-19,-96 180,-527 230,-657 76,-198 184,-555 281,-668 -9,-9 -44,-37 -54,-48 18,-203 39,-10 38,-149 0,-88 -42,-48 -15,-130 21,-64 76,-90 69,-210 2,14 17,16 -11,48 -60,69 32,32 -42,9l16 -194c-17,26 -1,-11 -31,59 -2,5 -20,52 -23,59l-288 898c-41,128 -330,928 -319,964z"/>
   <path class="fil6" d="M40395 20500l181 0 -207 -1647c-56,-76 -95,-73 -140,-150 -52,26 -53,-34 -21,190 14,93 21,154 30,238 41,394 156,1052 157,1369z"/>
   <path class="fil1" d="M42300 8888l0 -213c-27,6 -692,309 -1359,466 -167,39 -332,57 -520,80l267 37c69,-6 73,-37 119,-75 7,95 -14,116 352,52 682,-119 991,-320 1141,-347z"/>
   <path class="fil6" d="M19417 9420l43 22c327,-12 358,-63 732,-332l278 -250c89,-92 236,-131 253,-293l-48 -127c-86,32 -213,204 -282,266 -46,42 -266,229 -301,252l-537 361c-69,42 -84,32 -138,101z"/>
   <path class="fil10" d="M7456 10270c174,-38 430,-149 574,-179 87,-18 223,-33 325,-49 131,-20 265,-20 396,-10 -93,-54 -52,-23 -156,-39 -369,-60 -237,-131 -725,-14 -159,38 -108,38 -205,137l-4 -620c-159,161 -235,351 -234,620l16 135c1,3 7,15 13,19z"/>
   <path class="fil19" d="M19645 3456c-38,-85 -18,-36 -74,-106 -42,-22 -276,-161 -309,-202l-149 -19c-304,776 417,683 532,327z"/>
   <path class="fil14" d="M41300 20500l271 0c-26,-211 -53,-411 -74,-616 -41,-395 -103,-199 -268,-388 -71,34 -58,-30 -21,219l92 785z"/>
   <path class="fil20" d="M37755 8324c-144,-126 -181,-198 -380,-284l-44 -31c-20,22 -14,15 -35,48l-51 103c-74,176 -167,369 -24,456 187,115 506,-250 534,-292z"/>
   <path class="fil6" d="M27595 0l-191 0c-14,1064 -384,924 -236,1175 276,-11 469,-816 427,-1175z"/>
   <path class="fil10" d="M6086 4257c-46,156 -145,204 -173,370 182,-14 537,-459 1278,-446 123,3 172,36 252,-23 -513,-64 -874,-147 -1357,99z"/>
   <path class="fil6" d="M40858 20500l170 0 -166 -1243c-24,-44 -111,-108 -166,-134 -30,360 146,994 162,1377z"/>
   <polygon class="fil1" points="42300,746 42300,0 41746,0 "/>
   <path class="fil6" d="M28130 0l-200 0c22,322 -16,625 -165,903 -109,203 0,97 30,213 84,-82 90,-31 164,-177 133,-258 160,-631 171,-939z"/>
   <path class="fil10" d="M5698 13491c160,46 328,130 515,150 225,25 451,-15 645,-12 170,-26 311,-73 413,-164 -40,-17 -680,51 -840,43 -402,-20 -662,-130 -798,-143 69,50 52,10 65,126z"/>
   <path class="fil6" d="M28646 0l-205 0c85,495 -126,791 -193,1001 53,36 40,37 93,74 276,-138 294,-730 305,-1075z"/>
   <path class="fil21" d="M27720 8195c-150,146 -390,391 -521,579 32,67 -74,53 84,53l206 -163c77,-60 158,-98 238,-157l421 -385 -285 18 -143 55z"/>
   <path class="fil6" d="M29173 0l-194 0c10,204 9,271 -22,480 -27,180 -111,282 -100,416 170,85 228,-81 264,-297 47,-277 68,-247 52,-599z"/>
   <path class="fil9" d="M15469 7400c-277,130 -60,549 203,422 271,-130 70,-551 -203,-422z"/>
   <path class="fil3" d="M29789 16928c93,-4 150,-15 243,-28 134,-19 150,-9 218,-87 154,-175 249,-236 221,-336l-37 1c-4,1 -14,2 -18,3 -212,43 -282,16 -383,90 -86,63 -83,99 -128,164 -58,83 -89,73 -116,193z"/>
   <path class="fil11" d="M13447 3831c-265,95 -149,523 160,434 268,-77 136,-540 -160,-434z"/>
   <path class="fil1" d="M31735 15677c151,-29 67,-18 142,21 91,47 50,-30 84,73 -55,65 15,1 -110,46l-388 184c-5,4 -10,9 -15,12l-229 139c-5,3 -13,6 -17,9 -194,93 -3,-31 -78,38l-128 145c518,-211 562,-199 1003,-500 218,-149 152,-199 244,-264 -104,9 -145,85 -233,100 -179,29 -50,-10 -144,-33 -108,-26 -95,-7 -131,30z"/>
   <path class="fil11" d="M16816 231c-18,69 -8,11 25,30 143,-149 44,-153 187,-212 -9,85 -1,29 -23,88l-178 348c-67,102 -55,42 -88,138l173 148c13,-74 0,-46 30,-83l75 -56c-31,-38 -10,-37 -73,-61l86 -110 44 46c31,16 -7,20 84,20 -41,-104 -98,-75 -106,-148 -8,-69 43,8 -15,-207l174 65 5 -164c5,-5 15,-13 21,-20 -8,-2 -41,-3 -46,-5l-31 -6c-4,-3 -9,-12 -12,-42l-217 0c-26,112 -66,152 -115,231z"/>
   <path class="fil11" d="M38815 9689c-284,114 -92,480 161,382 253,-97 84,-481 -161,-382z"/>
   <path class="fil11" d="M41028 7802c2,130 -9,183 79,239 144,91 337,27 329,-162 -6,-120 -56,-102 -113,-198 -140,-11 -239,-6 -295,121z"/>
   <path class="fil11" d="M15370 421l22 -30c36,-55 27,-60 135,-111 54,91 -3,47 71,106 57,-14 44,-16 82,-43 -65,-42 -5,44 -202,-106 19,-14 -2,-36 101,-20 154,24 -107,13 46,20 -90,-49 -8,-36 -100,-141 -47,-53 -25,-32 -82,-60l-83 -36 -182 0c-22,138 -1,10 -29,83 -2,3 -84,139 35,178 92,30 51,36 47,-34 6,7 12,12 13,22 2,8 13,8 19,14l-58 -1c43,90 42,75 74,143 50,3 45,-5 85,-33l6 49z"/>
   <path class="fil4" d="M6166 10830c73,52 128,79 193,144 35,36 127,158 164,143 -51,-138 -79,-331 -143,-449 -101,-41 -148,-94 -279,-126 -83,131 -48,209 65,288z"/>
   <path class="fil22" d="M1633 1945l51 -121c12,-41 5,-28 10,-43 16,-46 1,-21 28,-54 3,125 -28,233 28,323 97,-55 122,-110 152,-232 31,-128 85,-205 69,-336 -77,63 -60,77 -106,164l-100 182c25,-230 83,-337 126,-534 -126,33 -129,159 -165,275 -19,59 -48,99 -64,138 -27,67 -25,157 -29,238z"/>
   <path class="fil10" d="M9380 13536c92,155 370,101 491,578l48 124c157,-705 -479,-742 -539,-702z"/>
   <path class="fil9" d="M35464 8209c-23,0 -159,-115 -278,-17 -62,50 -67,192 -20,260 106,151 381,85 298,-243z"/>
   <path class="fil14" d="M16169 225c-53,8 -30,-8 -87,-41 23,-96 -3,-78 -11,-184l-266 0 -44 73c46,34 9,5 52,49l59 62c-34,69 -31,52 -58,110 86,-47 -2,-51 89,-22l224 160 95 -89c-62,-99 -46,-22 -53,-118z"/>
   <path class="fil12" d="M16933 1019c120,60 146,161 232,239l231 216 89 -124c-5,-6 -13,-21 -15,-16l-106 -117c-18,-19 -32,-34 -53,-52l-309 -310c6,129 -14,18 46,120l-93 33c-4,-6 -15,7 -22,11z"/>
   <path class="fil6" d="M5582 7005l77 83 -52 55c-3,4 -7,11 -11,14 -3,4 -7,11 -11,14 -39,41 3,11 -42,38 -48,28 7,1 -69,26l78 111c231,-91 137,-33 273,-66l252 -94 -110 17 -68 -90c-65,-59 -77,-48 -166,-54l6 -83 -157 29z"/>
   <polygon class="fil4" points="11337,9408 11203,9701 11636,9593 11591,9328 "/>
   <path class="fil1" d="M19571 3350c56,70 36,21 74,106 105,-21 21,19 99,-65 31,-33 28,-35 61,-68 58,-59 97,-96 133,-160 -62,-48 -33,44 -66,-85 -18,-70 -5,-57 11,-117 -42,54 -35,33 -79,95 -104,144 -185,185 -233,294z"/>
   <path class="fil12" d="M16707 727c-20,56 25,39 -20,50 128,75 -60,-78 35,21l26 30c4,5 7,12 11,17 3,5 6,12 9,17l21 34c4,6 30,32 42,46l102 77c7,-4 18,-17 22,-11l93 -33c-60,-102 -40,9 -46,-120 -67,-88 -8,-40 -90,-84l-173 -148 -65 29 33 75z"/>
   <path class="fil10" d="M11337 9408l254 -80 -20 -450c-51,61 -210,427 -234,530z"/>
   <path class="fil11" d="M19798 12064c-159,119 22,337 168,224 130,-100 -16,-339 -168,-224z"/>
   <path class="fil11" d="M29981 4524c-72,-50 -83,-68 -186,-65 -270,251 219,466 186,65z"/>
   <path class="fil11" d="M25733 17754c-30,191 94,337 251,158 22,-221 -95,-257 -251,-158z"/>
   <path class="fil11" d="M16458 272l-1 46c119,-90 224,-207 300,-318l-378 0 -4 137c205,8 97,3 226,-77 -49,59 -111,122 -143,212z"/>
   <path class="fil9" d="M20998 3872c113,110 293,110 237,-102 -29,-108 -267,-174 -237,102z"/>
   <path class="fil9" d="M41410 6809c57,-188 -68,-325 -190,-218 -105,91 -29,272 190,218z"/>
   <path class="fil10" d="M16169 225c50,-45 -24,-46 54,-36l63 144c42,-14 31,-11 62,-24 5,-2 18,-1 22,-10 4,-10 14,-7 23,-12l28 65c45,-21 29,31 36,-34l1 -46c-32,-23 -45,-18 -61,-42l-111 21 53 -107c-113,5 -49,38 -81,-63l-111 89c9,-83 20,-82 62,-117l-20 -53 -118 0c8,106 34,88 11,184 57,33 34,49 87,41z"/>
   <path class="fil11" d="M16458 272c32,-90 94,-153 143,-212 -129,80 -21,85 -226,77l4 -137 -190 0 20 53c-42,35 -53,34 -62,117l111 -89c32,101 -32,68 81,63l-53 107 111 -21c16,24 29,19 61,42z"/>
   <path class="fil22" d="M16328 6422l10 114 -108 -16c71,81 110,66 211,89 68,16 3,0 82,24 3,-3 3,-15 3,-12 0,1 3,-43 55,-52 -23,-37 -5,-20 -49,-70 -9,-10 -36,-35 -40,-38 -59,-45 -86,-42 -146,-59l-18 20z"/>
   <path class="fil15" d="M21683 18405l73 -197c-34,-6 35,56 -44,0l10 -159c-45,-43 59,-21 -73,-41 -58,116 -26,155 -54,294 50,-44 7,9 47,-52 16,-24 31,-62 44,-84 -15,107 -36,165 -3,239z"/>
   <path class="fil11" d="M16941 3197l-122 -11c-132,264 250,238 122,11z"/>
  </g>
 </g>
</svg>
